<?xml version="1.0" standalone="no"?>
<!DOCTYPE svg PUBLIC "-//W3C//DTD SVG 1.1//EN" "http://www.w3.org/Graphics/SVG/1.1/DTD/svg11.dtd" >
<svg xmlns="http://www.w3.org/2000/svg">
<metadata></metadata>
<defs>
<font id="thin_pixe-l7regular" horiz-adv-x="614" >
<font-face units-per-em="2048" ascent="1536" descent="-512" />
<missing-glyph horiz-adv-x="500" />
<glyph horiz-adv-x="2048" />
<glyph horiz-adv-x="2048" />
<glyph unicode="&#xd;" />
<glyph unicode=" " />
<glyph unicode="!" horiz-adv-x="204" d="M0 0v102h102v-102h-102zM0 205v512h102v-512h-102z" />
<glyph unicode="&#x22;" horiz-adv-x="409" d="M0 410v307h102v-307h-102zM205 410v307h102v-307h-102z" />
<glyph unicode="#" d="M0 102v103h102v307h-102v102h102v103h103v-103h102v103h103v-103h102v-102h-102v-307h102v-103h-102v-102h-103v102h-102v-102h-103v102h-102zM205 205h102v307h-102v-307z" />
<glyph unicode="$" d="M0 0v102h205v205h-103v103h-102v204h102v103h103v102h102v-102h205v-103h-205v-204h103v-103h102v-205h-102v-102h-103v-102h-102v102h-205zM102 410h103v204h-103v-204zM307 102h103v205h-103v-205z" />
<glyph unicode="%" horiz-adv-x="716" d="M0 0v102h102v103h103v102h102v103h103v102h102v102h102v-102h-102v-102h-102v-103h-103v-102h-102v-103h-103v-102h-102zM0 410v204h205v-204h-205zM410 0v205h204v-205h-204z" />
<glyph unicode="&#x26;" horiz-adv-x="716" d="M0 102v205h102v103h-102v204h102v103h205v-103h103v-204h204v-103h-204v-205h204v-102h-204v102h-103v-102h-205v102h-102zM102 102h205v205h-205v-205zM102 410h205v202l-205 2v-204zM307 307h103v103l-103 -2v-101z" />
<glyph unicode="'" horiz-adv-x="204" d="M0 410v307h102v-307h-102z" />
<glyph unicode="(" horiz-adv-x="409" d="M0 102v512h102v103h205v-103h-205v-512h205v-102h-205v102h-102z" />
<glyph unicode=")" horiz-adv-x="409" d="M0 0v102h205v512h-205v103h205v-103h102v-512h-102v-102h-205z" />
<glyph unicode="*" d="M0 307v103h205v102h-103v102h103v-102h102v102h103v-102h-103v-102h205v-103h-205v-102h103v-103h-103v103h-102v-103h-103v103h103v102h-205z" />
<glyph unicode="+" d="M0 307v103h205v204h102v-204h205v-103h-205v-205h-102v205h-205z" />
<glyph unicode="," horiz-adv-x="307" d="M0 -102h102v204h-102v103h205v-307h-103v-103h-102v103z" />
<glyph unicode="-" d="M0 307v103h512v-103h-512z" />
<glyph unicode="." horiz-adv-x="204" d="M0 0v102h102v-102h-102z" />
<glyph unicode="/" horiz-adv-x="716" d="M0 0v102h102v103h103v102h102v103h103v102h102v102h102v-102h-102v-102h-102v-103h-103v-102h-102v-103h-103v-102h-102z" />
<glyph unicode="0" d="M0 102v512h102v103h308v-103h102v-512h-102v-102h-308v102h-102zM102 102h308v308h-103v-103h-102v-102h-103v-103zM102 307h103v103h102v102h103v102h-308v-307z" />
<glyph unicode="1" d="M0 0v102h205v410h-103v-102h-102v102h102v102h103v103h102v-615h205v-102h-512z" />
<glyph unicode="2" d="M0 0v307h102v103h308v204h-308v-102h-102v102h102v103h308v-103h102v-204h-102v-103h-308v-205h410v-102h-512z" />
<glyph unicode="3" d="M0 102v103h102v-103h308v205h-205v103h205v204h-308v-102h-102v102h102v103h308v-103h102v-204h-102v-103h102v-205h-102v-102h-308v102h-102z" />
<glyph unicode="4" d="M0 205v205h102v102h103v102h102v103h205v-717h-102v205h-410zM102 307h308v307h-103v-102h-102v-102h-103v-103z" />
<glyph unicode="5" d="M0 102v103h102v-103h308v308h-308v-103h-102v410h512v-103h-410v-102h308v-102h102v-308h-102v-102h-308v102h-102z" />
<glyph unicode="6" d="M0 102v512h102v103h308v-103h102v-102h-102v102h-308v-204h308v-103h102v-205h-102v-102h-308v102h-102zM102 102l308 -2v205l-308 2v-205z" />
<glyph unicode="7" d="M0 614v103h512v-307h-102v-103h-103v-307h-102v307h102v103h103v204h-410z" />
<glyph unicode="8" d="M0 102v205h102v103h-102v204h102v103h308v-103h102v-204h-102v-103h102v-205h-102v-102h-308v102h-102zM102 102h308v205h-308v-205zM102 410h308v204h-308v-204z" />
<glyph unicode="9" d="M0 102v103h102v-103h308v205h-308v103h-102v204h102v103h308v-103h102v-512h-102v-102h-308v102h-102zM102 410h308v204h-308v-204z" />
<glyph unicode=":" horiz-adv-x="204" d="M0 205v102h102v-102h-102zM0 410v102h102v-102h-102z" />
<glyph unicode=";" horiz-adv-x="309" d="M0 -102h102v204h-102v103h205v-307h-103v-103h-102v103zM0 410v102h102v-102h-102z" />
<glyph unicode="&#x3c;" horiz-adv-x="409" d="M0 307v103h102v102h103v102h102v-102h-102v-102h-103v-103h103v-102h102v-103h-102v103h-103v102h-102z" />
<glyph unicode="=" d="M0 205v102h512v-102h-512zM0 410v102h512v-102h-512z" />
<glyph unicode="&#x3e;" horiz-adv-x="409" d="M0 102v103h102v102h103v103h-103v102h-102v102h102v-102h103v-102h102v-103h-102v-102h-103v-103h-102z" />
<glyph unicode="?" d="M0 512v102h102v103h308v-103h102v-204h-102v-103h-103v-102h-102v205h205v204h-308v-102h-102zM205 0v102h102v-102h-102z" />
<glyph unicode="@" d="M0 102v512h102v103h308v-103h102v-409h-307v307h205v102h-308v-512h410v-102h-410v102h-102zM307 307h103v103h-103v-103z" />
<glyph unicode="A" d="M0 0v614h102v103h308v-103h102v-614h-102v307h-308v-307h-102zM102 410h308v204h-308v-204z" />
<glyph unicode="B" d="M0 0v717h410v-103h102v-204h-102v-103h102v-205h-102v-102h-410zM102 102h308v205h-308v-205zM102 410h308v204h-308v-204z" />
<glyph unicode="C" d="M0 102v512h102v103h308v-103h102v-102h-102v102h-308v-512h308v103h102v-103h-102v-102h-308v102h-102z" />
<glyph unicode="D" d="M0 0v717h410v-103h102v-512h-102v-102h-410zM102 102h308v512h-308v-512z" />
<glyph unicode="E" d="M0 0v717h512v-103h-410v-204h308v-103h-308v-205h410v-102h-512z" />
<glyph unicode="F" d="M0 0v717h512v-103h-410v-204h308v-103h-308v-307h-102z" />
<glyph unicode="G" d="M0 102v512h102v103h308v-103h102v-102h-102v102h-308v-512h308v103h-103v102h205v-205h-102v-102h-308v102h-102z" />
<glyph unicode="H" d="M0 0v717h102v-307h308v307h102v-717h-102v307h-308v-307h-102z" />
<glyph unicode="I" d="M0 0v102h205v512h-205v103h512v-103h-205v-512h205v-102h-512z" />
<glyph unicode="J" d="M0 102v205h102v-205h308v512h-308v-102h-102v205h512v-615h-102v-102h-308v102h-102z" />
<glyph unicode="K" d="M0 0v717h102v-307h205v102h103v205h102v-205h-102v-102h-103v-103h103v-102h102v-205h-102v205h-103v102h-205v-307h-102z" />
<glyph unicode="L" d="M0 0v717h102v-615h410v-102h-512z" />
<glyph unicode="M" d="M0 0v717h102v-205h103v-102h102v102h103v205h102v-717h-102v410h-103v-205h-102v205h-103v-410h-102z" />
<glyph unicode="N" d="M0 0v717h102v-205h103v-102h102v-103h103v410h102v-717h-102v205h-103v102h-102v103h-103v-410h-102z" />
<glyph unicode="O" d="M0 102v512h102v103h308v-103h102v-512h-102v-102h-308v102h-102zM102 102h308v512h-308v-512z" />
<glyph unicode="P" d="M0 0v717h410v-103h102v-204h-102v-103h-308v-307h-102zM102 410h308v202l-308 2v-204z" />
<glyph unicode="Q" d="M0 102v512h102v103h308v-103h102v-512h-102v-102h102v-102h-102v102h-308v102h-102zM102 102h308v512h-308v-512z" />
<glyph unicode="R" d="M0 0v717h410v-103h102v-204h-102v-103h-103v-102h103v-103h102v-102h-102v102h-103v103h-102v102h-103v-307h-102zM102 410h308v204h-308v-204z" />
<glyph unicode="S" d="M0 0v102h410v205h-308v103h-102v204h102v103h410v-103h-410v-204h308v-103h102v-205h-102v-102h-410z" />
<glyph unicode="T" d="M0 614v103h512v-103h-205v-614h-102v614h-205z" />
<glyph unicode="U" d="M0 102v615h102v-615h308v615h102v-615h-102v-102h-308v102h-102z" />
<glyph unicode="V" d="M0 205v512h102v-512h103v-103h102v103h103v512h102v-512h-102v-103h-103v-102h-102v102h-103v103h-102z" />
<glyph unicode="W" d="M0 102v615h102v-615h103v410h102v-410h103v615h102v-615h-102v-102h-103v102h-102v-102h-103v102h-102z" />
<glyph unicode="X" d="M0 0v205h102v102h103v103h-103v102h-102v205h102v-205h103v-102h102v102h103v205h102v-205h-102v-102h-103v-103h103v-102h102v-205h-102v205h-103v102h-102v-102h-103v-205h-102z" />
<glyph unicode="Y" d="M0 512v205h102v-205h103v-102h102v102h103v205h102v-205h-102v-102h-103v-410h-102v410h-103v102h-102z" />
<glyph unicode="Z" d="M0 0v205h102v102h103v103h102v102h103v102h-410v103h512v-205h-102v-102h-103v-103h-102v-102h-103v-103h410v-102h-512z" />
<glyph unicode="[" horiz-adv-x="409" d="M0 0v717h307v-103h-205v-512h205v-102h-307z" />
<glyph unicode="\" horiz-adv-x="716" d="M0 512v102h102v-102h103v-102h102v-103h103v-102h102v-103h102v-102h-102v102h-102v103h-103v102h-102v103h-103v102h-102z" />
<glyph unicode="]" horiz-adv-x="409" d="M0 0v102h205v512h-205v103h307v-717h-307z" />
<glyph unicode="^" d="M0 410v102h102v102h103v103h102v-103h103v-102h102v-102h-102v102h-103v102h-102v-102h-103v-102h-102z" />
<glyph unicode="_" d="M0 0v102h512v-102h-512z" />
<glyph unicode="`" horiz-adv-x="307" d="M0 614v103h102v-103h103v-102h-103v102h-102z" />
<glyph unicode="a" horiz-adv-x="512" d="M0 102v103h102v102h205v103h-205v102h205v-102h103v-410h-308v102h-102zM102 102h205v103h-205v-103z" />
<glyph unicode="b" horiz-adv-x="512" d="M0 0v717h102v-205h205v-102h103v-308h-103v-102h-307zM102 102h205v308h-205v-308z" />
<glyph unicode="c" horiz-adv-x="512" d="M0 102v308h102v102h308v-102h-308v-308h308v-102h-308v102h-102z" />
<glyph unicode="d" horiz-adv-x="512" d="M0 102v308h102v102h205v205h103v-717h-308v102h-102zM102 102h205v308h-205v-308z" />
<glyph unicode="e" horiz-adv-x="512" d="M0 102v308h102v102h205v-102h103v-205h-308v-103h308v-102h-308v102h-102zM102 307h205v103h-205v-103z" />
<glyph unicode="f" horiz-adv-x="512" d="M0 410v102h102v102h103v103h205v-103h-205v-102h102v-102h-102v-410h-103v410h-102z" />
<glyph unicode="g" horiz-adv-x="512" d="M0 102v308h102v102h308v-614h-103v-103h-205v103h205v102h-205v102h-102zM102 102h205v308h-205v-308z" />
<glyph unicode="h" horiz-adv-x="512" d="M0 0v717h102v-205h205v-102h103v-410h-103v410h-205v-410h-102z" />
<glyph unicode="i" horiz-adv-x="409" d="M0 0v102h102v308h-102v102h205v-410h102v-102h-307zM102 614v103h103v-103h-103z" />
<glyph unicode="j" horiz-adv-x="409" d="M0 -102h205v512h-205v102h307v-614h-102v-103h-205v103zM102 614v103h103v-103h-103z" />
<glyph unicode="k" horiz-adv-x="512" d="M0 0v717h102v-410h103v103h102v102h103v-102h-103v-103h-102v-102h102v-103h103v-102h-103v102h-102v103h-103v-205h-102z" />
<glyph unicode="l" horiz-adv-x="409" d="M0 0v102h102v512h-102v103h205v-615h102v-102h-307z" />
<glyph unicode="m" horiz-adv-x="616" d="M0 0v512h410v-102h102v-410h-102v410h-103v-410h-102v410h-103v-410h-102z" />
<glyph unicode="n" horiz-adv-x="512" d="M0 0v512h307v-102h103v-410h-103v410h-205v-410h-102z" />
<glyph unicode="o" horiz-adv-x="512" d="M0 102v308h102v102h205v-102h103v-308h-103v-102h-205v102h-102zM102 102h205v308h-205v-308z" />
<glyph unicode="p" horiz-adv-x="512" d="M0 -205v717h307v-102h103v-308h-103v-102h-205v-205h-102zM102 102h205v308h-205v-308z" />
<glyph unicode="q" horiz-adv-x="512" d="M0 102v308h102v102h308v-717h-103v205h-205v102h-102zM102 102h205v308h-205v-308z" />
<glyph unicode="r" horiz-adv-x="512" d="M0 0v512h307v-102h103v-103h-103v103h-205v-410h-102z" />
<glyph unicode="s" horiz-adv-x="512" d="M0 0v102h307v103h-205v102h-102v103h102v102h308v-102h-308v-103h205v-102h103v-103h-103v-102h-307z" />
<glyph unicode="t" horiz-adv-x="512" d="M0 410v102h102v205h103v-205h102v-102h-102v-308h205v-102h-205v102h-103v308h-102z" />
<glyph unicode="u" horiz-adv-x="512" d="M0 102v410h102v-410h205v410h103v-410h-103v-102h-205v102h-102z" />
<glyph unicode="v" d="M0 205v307h102v-307h103v-103h102v410h103v-410h-103v-102h-102v102h-103v103h-102z" />
<glyph unicode="w" d="M0 102v410h102v-410h103v308h102v-308h103v410h102v-410h-102v-102h-103v102h-102v-102h-103v102h-102z" />
<glyph unicode="x" horiz-adv-x="514" d="M0 0v205h102v102h-102v205h102v-205h205v205h103v-205h-103v-102h103v-205h-103v205h-205v-205h-102z" />
<glyph unicode="y" horiz-adv-x="512" d="M0 102v410h102v-410h205v410h103v-614h-103v-103h-205v103h205v102h-205v102h-102z" />
<glyph unicode="z" horiz-adv-x="514" d="M0 0v205h102v102h205v103h-307v102h410v-205h-103v-102h-205v-103h308v-102h-410z" />
<glyph unicode="{" horiz-adv-x="512" d="M0 307v103h102v307h308v-103h-205v-512h205v-102h-308v307h-102z" />
<glyph unicode="|" horiz-adv-x="204" d="M0 0v717h102v-717h-102z" />
<glyph unicode="}" horiz-adv-x="512" d="M0 0v102h205v512h-205v103h307v-307h103v-103h-103v-307h-307z" />
<glyph unicode="~" d="M0 205v205h102v102h103v-102h102v-103h103v205h102v-205h-102v-102h-103v102h-102v103h-103v-205h-102z" />
<glyph unicode="&#xa0;" />
<glyph unicode="&#xa1;" horiz-adv-x="204" d="M0 0v512h102v-512h-102zM0 614v103h102v-103h-102z" />
<glyph unicode="&#xa2;" d="M0 102v308h102v102h103v102h102v-102h205v-102h-205v-308h205v-102h-205v-102h-102v102h-103v102h-102zM102 102h103v308h-103v-308z" />
<glyph unicode="&#xa3;" horiz-adv-x="512" d="M0 0v102h102v308h-102v102h102v102h103v103h205v-103h-205v-102h102v-102h-102v-308h205v-102h-410z" />
<glyph unicode="&#xa4;" horiz-adv-x="716" d="M0 102v103h102v-103h-102zM0 614v103h102v-103h-102zM102 307v205h103v102h205v-102h102v-205h-102v-102h-205v102h-103zM205 307h205v205h-205v-205zM512 102v103h102v-103h-102zM512 614v103h102v-103h-102z" />
<glyph unicode="&#xa5;" d="M0 614v103h102v-103h103v-102h102v102h103v103h102v-103h-102v-102h-103v-102h103v-103h-103v-102h103v-103h-103v-102h-102v102h-103v103h103v102h-103v103h103v102h-103v102h-102z" />
<glyph unicode="&#xa6;" horiz-adv-x="204" d="M0 0v307h102v-307h-102zM0 410v307h102v-307h-102z" />
<glyph unicode="&#xa7;" d="M0 0v102h410v103h-308v102h-102v307h102v103h410v-103h-410v-102h308v-102h102v-308h-102v-102h-410zM102 307h308v103h-308v-103z" />
<glyph unicode="&#xa8;" horiz-adv-x="409" d="M0 614v103h102v-103h-102zM205 614v103h102v-103h-102z" />
<glyph unicode="&#xa9;" horiz-adv-x="819" d="M0 102v512h102v103h512v-103h103v-512h-103v-102h-512v102h-102zM102 102h512v512h-512v-512zM205 205v307h307v-102h-205v-103h205v-102h-307z" />
<glyph unicode="&#xaa;" horiz-adv-x="512" d="M0 307v103h102v102h205v102h-205v103h205v-103h103v-409h-308v102h-102zM102 307h205v103h-205v-103z" />
<glyph unicode="&#xab;" horiz-adv-x="716" d="M0 307v103h102v102h103v102h102v-102h-102v-102h-103v-103h103v-102h102v-103h-102v103h-103v102h-102zM307 307v103h103v102h102v102h102v-102h-102v-102h-102v-103h102v-102h102v-103h-102v103h-102v102h-103z" />
<glyph unicode="&#xac;" d="M0 614v103h512v-307h-102v204h-410z" />
<glyph unicode="&#xad;" horiz-adv-x="512" d="M0 307v103h410v-103h-410z" />
<glyph unicode="&#xae;" horiz-adv-x="819" d="M0 102v615h102v102h512v-102h103v-615h-103v-102h-512v102h-102zM102 102h512v615h-512v-615zM205 205v409h205v-102h102v-102h-102v-103h102v-102h-102v102h-103v-102h-102zM307 410h103v102h-103v-102z" />
<glyph unicode="&#xb0;" horiz-adv-x="512" d="M0 410v204h102v103h205v-103h103v-204h-103v-103h-205v103h-102zM102 410h205v204h-205v-204z" />
<glyph unicode="&#xb1;" d="M0 0v102h512v-102h-512zM0 410v102h205v205h102v-205h205v-102h-205v-205h-102v205h-205z" />
<glyph unicode="&#xb2;" d="M0 205v205h102v102h205v102h-307v103h307v-103h103v-102h-103v-102h-205v-103h308v-102h-410z" />
<glyph unicode="&#xb3;" horiz-adv-x="512" d="M0 205v102h307v103h-205v102h205v102h-307v103h307v-103h103v-102h-103v-102h103v-103h-103v-102h-307z" />
<glyph unicode="&#xb4;" horiz-adv-x="307" d="M0 512v102h102v103h103v-103h-103v-102h-102z" />
<glyph unicode="&#xb5;" d="M0 -205v819h102v-409h103v-103h102v103h103v409h102v-614h-102v102h-103v-102h-102v102h-103v-307h-102z" />
<glyph unicode="&#xb6;" d="M0 410v204h102v103h410v-103h-102v-614h-103v614h-102v-614h-103v410h-102z" />
<glyph unicode="&#xb7;" horiz-adv-x="204" d="M0 307v103h102v-103h-102z" />
<glyph unicode="&#xb8;" horiz-adv-x="409" d="M0 -102h205v102h102v-102h-102v-103h-205v103z" />
<glyph unicode="&#xb9;" horiz-adv-x="409" d="M0 205v102h102v205h-102v102h102v103h103v-410h102v-102h-307z" />
<glyph unicode="&#xba;" horiz-adv-x="512" d="M0 307v307h102v103h205v-103h103v-307h-103v-102h-205v102h-102zM102 307h205v307h-205v-307z" />
<glyph unicode="&#xbb;" horiz-adv-x="716" d="M0 102v103h102v102h103v103h-103v102h-102v102h102v-102h103v-102h102v-103h-102v-102h-103v-103h-102zM307 102v103h103v102h102v103h-102v102h-103v102h103v-102h102v-102h102v-103h-102v-102h-102v-103h-103z" />
<glyph unicode="&#xbc;" horiz-adv-x="1228" d="M0 410v102h102v205h-102v102h102v103h103v-410h102v-102h-307zM205 0v102h102v103h103v102h102v103h102v102h103v102h102v-102h-102v-102h-103v-103h-102v-102h-102v-103h-103v-102h-102zM717 0v307h102v-205h205v205h102v-512h-102v205h-307z" />
<glyph unicode="&#xbd;" horiz-adv-x="1228" d="M0 410v102h102v205h-102v102h102v103h103v-410h102v-102h-307zM205 0v102h102v103h103v102h102v103h102v102h103v102h102v-102h-102v-102h-103v-103h-102v-102h-102v-103h-103v-102h-102zM717 0h102v102h205v103h-307v102h307v-102h102v-205h-307v-102h307v-103h-409v205 z" />
<glyph unicode="&#xbe;" horiz-adv-x="1228" d="M0 410v102h307v102h-205v103h205v102h-307v103h307v-103h103v-102h-103v-103h103v-102h-103v-102h-307zM205 0v102h102v103h103v102h102v103h102v102h103v102h102v-102h-102v-102h-103v-103h-102v-102h-102v-103h-103v-102h-102zM717 0v307h102v-205h205v205h102v-512 h-102v205h-307z" />
<glyph unicode="&#xbf;" d="M0 102v205h102v103h103v102h102v-205h-205v-205h308v103h102v-103h-102v-102h-308v102h-102zM205 614v103h102v-103h-102z" />
<glyph unicode="&#xc0;" d="M0 0v614h102v103h308v-103h102v-614h-102v307h-308v-307h-102zM102 410h308v204h-308v-204zM102 922v102h103v-102h102v-103h-102v103h-103z" />
<glyph unicode="&#xc1;" d="M0 0v614h102v103h308v-103h102v-614h-102v307h-308v-307h-102zM102 410h308v204h-308v-204zM205 819v103h102v102h103v-102h-103v-103h-102z" />
<glyph unicode="&#xc2;" d="M0 0v614h102v103h308v-103h102v-614h-102v307h-308v-307h-102zM0 819v103h102v102h103v-102h-103v-103h-102zM102 410h308v204h-308v-204zM307 922v102h103v-102h102v-103h-102v103h-103z" />
<glyph unicode="&#xc3;" d="M0 0v614h102v103h308v-103h102v-614h-102v307h-308v-307h-102zM102 410h308v204h-308v-204zM102 819v103h103v102h102v-102h103v102h102v-102h-102v-103h-103v103h-102v-103h-103z" />
<glyph unicode="&#xc4;" d="M0 0v614h102v103h308v-103h102v-614h-102v307h-308v-307h-102zM102 410h308v204h-308v-204zM102 819v103h103v-103h-103zM307 819v103h103v-103h-103z" />
<glyph unicode="&#xc5;" d="M0 0v614h102v103h103v102h-103v103h103v102h102v-102h103v-103h-103v-102h103v-103h102v-614h-102v307h-308v-307h-102zM102 410h308v204h-308v-204zM205 819h102v103h-102v-103z" />
<glyph unicode="&#xc6;" horiz-adv-x="819" d="M0 0v614h102v103h615v-103h-307v-204h204v-103h-204v-205h307v-102h-410v307h-205v-307h-102zM102 410h205v204h-205v-204z" />
<glyph unicode="&#xc7;" d="M0 -102h205v102h-103v102h-102v512h102v103h308v-103h102v-102h-102v102h-308v-512h308v103h102v-103h-102v-102h-103v-102h-102v-103h-205v103z" />
<glyph unicode="&#xc8;" d="M0 0v717h512v-103h-410v-204h308v-103h-308v-205h410v-102h-512zM102 922v102h103v-102h102v-103h-102v103h-103z" />
<glyph unicode="&#xc9;" d="M0 0v717h512v-103h-410v-204h308v-103h-308v-205h410v-102h-512zM205 819v103h102v102h103v-102h-103v-103h-102z" />
<glyph unicode="&#xca;" d="M0 0v717h512v-103h-410v-204h308v-103h-308v-205h410v-102h-512zM0 819v103h102v102h103v-102h-103v-103h-102zM307 922v102h103v-102h102v-103h-102v103h-103z" />
<glyph unicode="&#xcb;" d="M0 0v717h512v-103h-410v-204h308v-103h-308v-205h410v-102h-512zM102 819v103h103v-103h-103zM307 819v103h103v-103h-103z" />
<glyph unicode="&#xcc;" d="M0 0v102h205v512h-205v103h512v-103h-205v-512h205v-102h-512zM102 922v102h103v-102h102v-103h-102v103h-103z" />
<glyph unicode="&#xcd;" d="M0 0v102h205v512h-205v103h512v-103h-205v-512h205v-102h-512zM205 819v103h102v102h103v-102h-103v-103h-102z" />
<glyph unicode="&#xce;" d="M0 0v102h205v512h-205v103h512v-103h-205v-512h205v-102h-512zM0 819v103h102v102h103v-102h-103v-103h-102zM307 922v102h103v-102h102v-103h-102v103h-103z" />
<glyph unicode="&#xcf;" d="M0 0v102h205v512h-205v103h512v-103h-205v-512h205v-102h-512zM102 819v103h103v-103h-103zM307 819v103h103v-103h-103z" />
<glyph unicode="&#xd0;" horiz-adv-x="716" d="M0 307v103h102v307h410v-103h102v-512h-102v-102h-410v307h-102zM205 102h307v512h-307v-204h205v-103h-205v-205z" />
<glyph unicode="&#xd1;" d="M0 0v717h102v-205h103v-102h102v-103h103v410h102v-717h-102v205h-103v102h-102v103h-103v-410h-102zM102 819v103h103v102h102v-102h103v102h102v-102h-102v-103h-103v103h-102v-103h-103z" />
<glyph unicode="&#xd2;" d="M0 102v512h102v103h308v-103h102v-512h-102v-102h-308v102h-102zM102 102h308v512h-308v-512zM102 922v102h103v-102h102v-103h-102v103h-103z" />
<glyph unicode="&#xd3;" d="M0 102v512h102v103h308v-103h102v-512h-102v-102h-308v102h-102zM102 102h308v512h-308v-512zM205 819v103h102v102h103v-102h-103v-103h-102z" />
<glyph unicode="&#xd4;" d="M0 102v512h102v103h308v-103h102v-512h-102v-102h-308v102h-102zM0 819v103h102v102h103v-102h-103v-103h-102zM102 102h308v512h-308v-512zM307 922v102h103v-102h102v-103h-102v103h-103z" />
<glyph unicode="&#xd5;" d="M0 102v512h102v103h308v-103h102v-512h-102v-102h-308v102h-102zM102 102h308v512h-308v-512zM102 819v103h103v102h102v-102h103v102h102v-102h-102v-103h-103v103h-102v-103h-103z" />
<glyph unicode="&#xd6;" d="M0 102v512h102v103h308v-103h102v-512h-102v-102h-308v102h-102zM102 102h308v512h-308v-512zM102 819v103h103v-103h-103zM307 819v103h103v-103h-103z" />
<glyph unicode="&#xd7;" d="M0 102v103h102v102h103v103h-103v102h-102v102h102v-102h103v-102h102v102h103v102h102v-102h-102v-102h-103v-103h103v-102h102v-103h-102v103h-103v102h-102v-102h-103v-103h-102z" />
<glyph unicode="&#xd8;" d="M0 102v512h102v103h308v-103h102v-512h-102v-102h-308v102h-102zM102 102h308v308h-103v-103h-102v-102h-103v-103zM102 307h103v103h102v102h103v102h-308v-307z" />
<glyph unicode="&#xd9;" d="M0 102v615h102v-615h308v615h102v-615h-102v-102h-308v102h-102zM102 922v102h103v-102h102v-103h-102v103h-103z" />
<glyph unicode="&#xda;" d="M0 102v615h102v-615h308v615h102v-615h-102v-102h-308v102h-102zM205 819v103h102v102h103v-102h-103v-103h-102z" />
<glyph unicode="&#xdb;" d="M0 102v615h102v-615h308v615h102v-615h-102v-102h-308v102h-102zM0 819v103h102v102h103v-102h-103v-103h-102zM307 922v102h103v-102h102v-103h-102v103h-103z" />
<glyph unicode="&#xdc;" d="M0 102v615h102v-615h308v615h102v-615h-102v-102h-308v102h-102zM102 819v103h103v-103h-103zM307 819v103h103v-103h-103z" />
<glyph unicode="&#xdd;" d="M0 512v205h102v-205h103v-102h102v102h103v205h102v-205h-102v-102h-103v-410h-102v410h-103v102h-102zM205 819v103h102v102h103v-102h-103v-103h-102z" />
<glyph unicode="&#xde;" d="M0 0v717h102v-103h308v-102h102v-307h-102v-103h-308v-102h-102zM102 205h308v307h-308v-307z" />
<glyph unicode="&#xdf;" d="M0 0v614h102v103h205v-103h103v-307h102v-205h-102v-102h-205v102h205v205h-308v-307h-102zM102 410h205v202l-205 2v-204z" />
<glyph unicode="&#xe0;" horiz-adv-x="512" d="M0 102v103h102v102h205v103h-205v102h205v-102h103v-410h-308v102h-102zM0 717v102h102v-102h103v-103h-103v103h-102zM102 102h205v103h-205v-103z" />
<glyph unicode="&#xe1;" horiz-adv-x="512" d="M0 102v103h102v102h205v103h-205v102h205v-102h103v-410h-308v102h-102zM102 102h205v103h-205v-103zM205 614v103h102v102h103v-102h-103v-103h-102z" />
<glyph unicode="&#xe2;" horiz-adv-x="512" d="M0 102v103h102v102h205v103h-205v102h205v-102h103v-410h-308v102h-102zM102 102h205v103h-205v-103zM102 614v103h103v102h102v-102h103v-103h-103v103h-102v-103h-103z" />
<glyph unicode="&#xe3;" horiz-adv-x="512" d="M0 102v103h102v102h205v103h-205v102h205v-102h103v-410h-308v102h-102zM0 614v103h102v102h103v-102h102v102h103v-102h-103v-103h-102v103h-103v-103h-102zM102 102h205v103h-205v-103z" />
<glyph unicode="&#xe4;" horiz-adv-x="512" d="M0 102v103h102v102h205v103h-205v102h205v-102h103v-410h-308v102h-102zM102 102h205v103h-205v-103zM102 614v103h103v-103h-103zM307 614v103h103v-103h-103z" />
<glyph unicode="&#xe5;" horiz-adv-x="512" d="M0 102v103h102v102h205v103h-205v102h205v-102h103v-410h-308v102h-102zM102 102h205v103h-205v-103zM102 717v102h103v103h102v-103h103v-102h-103v-103h-102v103h-103zM205 717h102v102h-102v-102z" />
<glyph unicode="&#xe6;" horiz-adv-x="819" d="M0 102v103h102v102h205v103h-205v102h205v-102h103v102h204v-102h103v-205h-307v-103h307v-102h-307v102h-103v-102h-205v102h-102zM102 102h205v103h-205v-103zM410 307h204v103h-204v-103z" />
<glyph unicode="&#xe7;" horiz-adv-x="512" d="M0 -102h205v102h-103v102h-102v308h102v102h308v-102h-308v-308h308v-102h-103v-102h-102v-103h-205v103z" />
<glyph unicode="&#xe8;" horiz-adv-x="512" d="M0 102v308h102v102h205v-102h103v-205h-308v-103h308v-102h-308v102h-102zM0 717v102h102v-102h103v-103h-103v103h-102zM102 307h205v103h-205v-103z" />
<glyph unicode="&#xe9;" horiz-adv-x="512" d="M0 102v308h102v102h205v-102h103v-205h-308v-103h308v-102h-308v102h-102zM102 307h205v103h-205v-103zM205 614v103h102v102h103v-102h-103v-103h-102z" />
<glyph unicode="&#xea;" horiz-adv-x="512" d="M0 102v308h102v102h205v-102h103v-205h-308v-103h308v-102h-308v102h-102zM102 307h205v103h-205v-103zM102 614v103h103v102h102v-102h103v-103h-103v103h-102v-103h-103z" />
<glyph unicode="&#xeb;" horiz-adv-x="512" d="M0 102v308h102v102h205v-102h103v-205h-308v-103h308v-102h-308v102h-102zM102 307h205v103h-205v-103zM102 614v103h103v-103h-103zM307 614v103h103v-103h-103z" />
<glyph unicode="&#xec;" horiz-adv-x="409" d="M0 0v102h102v308h-102v102h205v-410h102v-102h-307zM0 717v102h102v-102h103v-103h-103v103h-102z" />
<glyph unicode="&#xed;" horiz-adv-x="409" d="M0 0v102h102v308h-102v102h205v-410h102v-102h-307zM102 614v103h103v102h102v-102h-102v-103h-103z" />
<glyph unicode="&#xee;" horiz-adv-x="409" d="M0 0v102h102v308h-102v102h205v-410h102v-102h-307zM0 614v103h102v102h103v-102h102v-103h-102v103h-103v-103h-102z" />
<glyph unicode="&#xef;" horiz-adv-x="409" d="M0 0v102h102v308h-102v102h205v-410h102v-102h-307zM0 614v103h102v-103h-102zM205 614v103h102v-103h-102z" />
<glyph unicode="&#xf0;" horiz-adv-x="512" d="M0 102v308h102v102h205v102h-102v103h102v-103h103v-512h-103v-102h-205v102h-102zM102 102h205v308h-205v-308z" />
<glyph unicode="&#xf1;" horiz-adv-x="512" d="M0 0v512h307v-102h103v-410h-103v410h-205v-410h-102zM0 614v103h102v102h103v-102h102v102h103v-102h-103v-103h-102v103h-103v-103h-102z" />
<glyph unicode="&#xf2;" horiz-adv-x="512" d="M0 102v308h102v102h205v-102h103v-308h-103v-102h-205v102h-102zM0 717v102h102v-102h103v-103h-103v103h-102zM102 102h205v308h-205v-308z" />
<glyph unicode="&#xf3;" horiz-adv-x="512" d="M0 102v308h102v102h205v-102h103v-308h-103v-102h-205v102h-102zM102 102h205v308h-205v-308zM205 614v103h102v102h103v-102h-103v-103h-102z" />
<glyph unicode="&#xf4;" horiz-adv-x="512" d="M0 102v308h102v102h205v-102h103v-308h-103v-102h-205v102h-102zM0 614v103h102v102h205v-102h103v-103h-103v103h-205v-103h-102zM102 102h205v308h-205v-308z" />
<glyph unicode="&#xf5;" horiz-adv-x="512" d="M0 102v308h102v102h205v-102h103v-308h-103v-102h-205v102h-102zM0 614v103h102v102h103v-102h102v102h103v-102h-103v-103h-102v103h-103v-103h-102zM102 102h205v308h-205v-308z" />
<glyph unicode="&#xf6;" horiz-adv-x="512" d="M0 102v308h102v102h205v-102h103v-308h-103v-102h-205v102h-102zM0 614v103h102v-103h-102zM102 102h205v308h-205v-308zM307 614v103h103v-103h-103z" />
<glyph unicode="&#xf7;" d="M0 307v103h512v-103h-512zM205 102v103h102v-103h-102zM205 512v102h102v-102h-102z" />
<glyph unicode="&#xf8;" d="M0 102v308h102v102h308v-102h102v-308h-102v-102h-308v102h-102zM102 205h103v102h102v103h-205v-205zM205 102h205v205h-103v-102h-102v-103z" />
<glyph unicode="&#xf9;" horiz-adv-x="512" d="M0 102v410h102v-410h205v410h103v-410h-103v-102h-205v102h-102zM0 717v102h102v-102h103v-103h-103v103h-102z" />
<glyph unicode="&#xfa;" horiz-adv-x="512" d="M0 102v410h102v-410h205v410h103v-410h-103v-102h-205v102h-102zM205 614v103h102v102h103v-102h-103v-103h-102z" />
<glyph unicode="&#xfb;" horiz-adv-x="512" d="M0 102v410h102v-410h205v410h103v-410h-103v-102h-205v102h-102zM0 614v103h102v102h205v-102h103v-103h-103v103h-205v-103h-102z" />
<glyph unicode="&#xfc;" horiz-adv-x="512" d="M0 102v410h102v-410h205v410h103v-410h-103v-102h-205v102h-102zM0 614v103h102v-103h-102zM307 614v103h103v-103h-103z" />
<glyph unicode="&#xfd;" horiz-adv-x="512" d="M0 102v410h102v-410h205v410h103v-614h-103v-103h-205v103h205v102h-205v102h-102zM205 614v103h102v102h103v-102h-103v-103h-102z" />
<glyph unicode="&#xfe;" horiz-adv-x="512" d="M0 -205v922h102v-205h205v-102h103v-308h-103v-102h-205v-205h-102zM102 102h205v308h-205v-308z" />
<glyph unicode="&#xff;" horiz-adv-x="512" d="M0 102v410h102v-410h205v410h103v-614h-103v-103h-205v103h205v102h-205v102h-102zM0 614v103h102v-103h-102zM307 614v103h103v-103h-103z" />
<glyph unicode="&#x152;" horiz-adv-x="819" d="M0 102v512h102v103h615v-103h-307v-204h204v-103h-204v-205h307v-102h-615v102h-102zM102 102h205v512h-205v-512z" />
<glyph unicode="&#x153;" horiz-adv-x="819" d="M0 102v308h102v102h205v-102h103v102h204v-102h103v-205h-307v-103h307v-102h-307v102h-103v-102h-205v102h-102zM102 102h205v308h-205v-308zM410 307h204v101l-204 2v-103z" />
<glyph unicode="&#x178;" d="M0 512v205h102v-205h103v-102h102v102h103v205h102v-205h-102v-102h-103v-410h-102v410h-103v102h-102zM102 819v103h103v-103h-103zM307 819v103h103v-103h-103z" />
<glyph unicode="&#x2c6;" horiz-adv-x="409" d="M0 512v102h102v103h103v-103h102v-102h-102v102h-103v-102h-102z" />
<glyph unicode="&#x2dc;" d="M0 410v204h102v103h103v-103h102v-102h103v205h102v-205h-102v-102h-103v102h-102v102h-103v-204h-102z" />
<glyph unicode="&#x2000;" horiz-adv-x="682" />
<glyph unicode="&#x2001;" horiz-adv-x="1365" />
<glyph unicode="&#x2002;" horiz-adv-x="682" />
<glyph unicode="&#x2003;" horiz-adv-x="1365" />
<glyph unicode="&#x2004;" horiz-adv-x="455" />
<glyph unicode="&#x2005;" horiz-adv-x="341" />
<glyph unicode="&#x2006;" horiz-adv-x="227" />
<glyph unicode="&#x2007;" horiz-adv-x="227" />
<glyph unicode="&#x2008;" horiz-adv-x="170" />
<glyph unicode="&#x2009;" horiz-adv-x="273" />
<glyph unicode="&#x200a;" horiz-adv-x="75" />
<glyph unicode="&#x2010;" d="M0 307v103h512v-103h-512z" />
<glyph unicode="&#x2011;" d="M0 307v103h512v-103h-512z" />
<glyph unicode="&#x2012;" d="M0 307v103h512v-103h-512z" />
<glyph unicode="&#x2013;" d="M0 307v103h512v-103h-512z" />
<glyph unicode="&#x2014;" horiz-adv-x="716" d="M0 307v103h614v-103h-614z" />
<glyph unicode="&#x2018;" horiz-adv-x="307" d="M0 614v308h102v102h103v-102h-103v-205h103v-103h-205z" />
<glyph unicode="&#x2019;" horiz-adv-x="307" d="M0 307v103h102v204h-102v103h205v-307h-103v-103h-102z" />
<glyph unicode="&#x201a;" horiz-adv-x="307" d="M0 -102h102v204h-102v103h205v-307h-103v-103h-102v103z" />
<glyph unicode="&#x201c;" d="M0 614v308h102v102h103v-102h-103v-205h103v-103h-205zM307 614v308h103v102h102v-102h-102v-205h102v-103h-205z" />
<glyph unicode="&#x201d;" d="M0 307v103h102v204h-102v103h205v-307h-103v-103h-102zM307 307v103h103v204h-103v103h205v-307h-102v-103h-103z" />
<glyph unicode="&#x201e;" d="M0 -102h102v204h-102v103h205v-307h-103v-103h-102v103zM307 -102h103v204h-103v103h205v-307h-102v-103h-103v103z" />
<glyph unicode="&#x2022;" horiz-adv-x="307" d="M0 307v205h205v-205h-205z" />
<glyph unicode="&#x2026;" d="M0 0v102h102v-102h-102zM205 0v102h102v-102h-102zM410 0v102h102v-102h-102z" />
<glyph unicode="&#x202f;" horiz-adv-x="273" />
<glyph unicode="&#x2039;" horiz-adv-x="409" d="M0 307v103h102v102h103v102h102v-102h-102v-102h-103v-103h103v-102h102v-103h-102v103h-103v102h-102z" />
<glyph unicode="&#x203a;" horiz-adv-x="409" d="M0 102v103h102v102h103v103h-103v102h-102v102h102v-102h103v-102h102v-103h-102v-102h-103v-103h-102z" />
<glyph unicode="&#x205f;" horiz-adv-x="341" />
<glyph unicode="&#x20ac;" d="M0 205v102h102v103h-102v102h102v102h103v103h307v-103h-307v-102h205v-102h-205v-103h205v-102h-205v-103h307v-102h-307v102h-103v103h-102z" />
<glyph unicode="&#x2122;" horiz-adv-x="921" d="M0 512v102h410v-102h102v-102h102v102h103v102h102v-409h-102v205h-103v-103h-102v103h-102v-205h-103v307h-102v-307h-103v307h-102z" />
<glyph unicode="&#x25fc;" horiz-adv-x="512" d="M0 0v512h512v-512h-512z" />
</font>
</defs>
</svg>
