<?xml version="1.0" encoding="utf-8"?>
<!-- Generator: Adobe Illustrator 15.0.2, SVG Export Plug-In  -->
<!DOCTYPE svg PUBLIC "-//W3C//DTD SVG 1.1//EN" "http://www.w3.org/Graphics/SVG/1.1/DTD/svg11.dtd" [
	<!ENTITY ns_flows "http://ns.adobe.com/Flows/1.0/">
]>
<svg version="1.1"
	 xmlns="http://www.w3.org/2000/svg" xmlns:xlink="http://www.w3.org/1999/xlink" xmlns:a="http://ns.adobe.com/AdobeSVGViewerExtensions/3.0/"
	 x="0px" y="0px" width="100px" height="100px" viewBox="-0.642 -13.083 100 100"
	 overflow="visible" enable-background="new -0.642 -13.083 100 100" xml:space="preserve">
<defs>
</defs>
<path fill="#351F13" d="M2.23,16.281c-0.474,0.473-0.474,3.476-0.948,4.109c-0.475,0.632-1.423,5.689-1.265,9.483
	c0.158,3.793-0.474,13.75,1.106,15.647s13.593,5.216,14.067,6.639c0.475,1.423,7.903,3.479,9.326,3.792
	c1.423,0.318,11.222,7.43,13.593,8.536c2.371,1.106,4.425,3.162,6.48,4.109c2.055,0.948,16.28,5.059,18.809,4.427
	c2.529-0.633,6.64-2.845,6.64-3.951s7.429-4.109,7.586-5.85c0.157-1.738,4.584-5.53,4.584-5.53s16.753-20.233,16.438-22.129
	c-0.315-1.897-0.631-8.536-0.157-9.326c0.473-0.79,1.264-7.745-0.158-11.064L2.23,16.281"/>
<path fill="#3A2216" d="M2.23,16.281c-0.474,0.473-0.474,3.476-0.948,4.109c-0.475,0.632-1.423,5.689-1.265,9.483
	c0.158,3.793-0.474,13.75,1.106,15.647s13.593,5.216,14.067,6.639c0.475,1.423,7.903,3.479,9.326,3.792
	c1.423,0.318,11.222,7.43,13.593,8.536c2.371,1.106,4.425,3.162,6.48,4.109c2.055,0.948,15.675,5.164,18.202,4.533
	c1.265-0.477,1.554-10.696,2.029-12.909c1.008-4.7,0-18.335,0-18.335L38.689,25.974L2.23,16.281z"/>
<path fill="#51311B" d="M5.076,15.49c-0.765,0.86-3.319,0.158-2.845,0.791c0.474,0.632,14.7,6.796,16.913,7.112
	c2.212,0.316,14.542,4.426,15.173,4.9c0.632,0.474,20.548,8.535,22.444,9.01c1.896,0.474,7.113,4.425,8.062,4.583
	s10.432-5.532,10.906-6.481c0.474-0.948,0.474-0.948,0.474-0.948s4.426-3.478,5.689-4.899c1.267-1.423,7.271-6.639,7.904-6.797
	c0.632-0.157,9.957-7.586,8.535-7.586c-1.423,0-8.851-2.529-15.964-3.477c-7.113-0.949-10.906-2.213-11.222-2.688
	C70.828,8.535,48.699,0,46.487,0c0,0-3.32,0.316-12.803,4.584c-1.612,0.725-6.639,5.374-7.904,5.216
	C24.517,9.642,6.34,14.068,5.076,15.49z"/>
</svg>
