<?xml version="1.0" encoding="utf-8"?>
<!-- Generator: Adobe Illustrator 15.0.2, SVG Export Plug-In  -->
<!DOCTYPE svg PUBLIC "-//W3C//DTD SVG 1.1//EN" "http://www.w3.org/Graphics/SVG/1.1/DTD/svg11.dtd" [
	<!ENTITY ns_flows "http://ns.adobe.com/Flows/1.0/">
]>
<svg version="1.1"
	 xmlns="http://www.w3.org/2000/svg" xmlns:xlink="http://www.w3.org/1999/xlink" xmlns:a="http://ns.adobe.com/AdobeSVGViewerExtensions/3.0/"
	 x="0px" y="0px" width="100px" height="100px" viewBox="5.687 -9.404 100 100"
	 overflow="visible" enable-background="new 5.687 -9.404 100 100" xml:space="preserve">
<defs>
</defs>
<path fill="#89552F" d="M6.846,23.954c0,0,4.104-5.076,13.272-10.017c4.269-2.301,9.635-4.572,16.197-6.29
	c21.022-5.501,67.19,0.491,68.959,21.316c0.234,2.769-2.162,5.698-2.162,5.698c-0.393,10.806-1.768,25.442-2.554,27.406
	C99.772,64.033,95,68.67,95,68.67L6.846,23.954z"/>
<g>
	<defs>
		<path id="SVGID_2_" d="M6.846,23.954c0,0,3.367-5.319,12.536-10.261c4.269-2.3,10.372-4.328,16.934-6.045
			c21.022-5.501,67.492,0.543,69.26,21.369c0.234,2.768-2.463,5.645-2.463,5.645c-0.393,10.806-1.768,25.442-2.554,27.406
			C99.772,64.033,95,68.67,95,68.67L6.846,23.954z"/>
	</defs>
	<clipPath id="SVGID_3_">
		<use xlink:href="#SVGID_2_"  overflow="visible"/>
	</clipPath>
	<polygon clip-path="url(#SVGID_3_)" fill="#7F4E2D" points="98.791,35.153 104.095,34.367 109.203,21.499 89.654,7.746 
		55.962,1.165 26.59,5.978 5.175,20.712 5.175,27 	"/>
</g>
<path fill="#8E5A2F" d="M8.354,32.855c0,0,0.027,31.675,2.174,33.558c2.147,1.883,81.32,5.24,84.471,2.257
	c3.151-2.982,4.587-33.992,4.587-33.992c7.627-6.289-4.069-22.646-43.001-25.858C17.455,5.593-0.743,24.314,8.354,32.855z"/>
<g>
	<defs>
		<path id="SVGID_1_" d="M8.354,32.855c0,0,0.027,31.675,2.174,33.558c2.147,1.883,81.32,5.24,84.471,2.257
			c3.151-2.982,4.587-33.992,4.587-33.992c7.627-6.289-4.069-22.646-43.001-25.858C17.455,5.593-0.743,24.314,8.354,32.855z"/>
	</defs>
	<clipPath id="SVGID_4_">
		<use xlink:href="#SVGID_1_"  overflow="visible"/>
	</clipPath>
	<polygon clip-path="url(#SVGID_4_)" fill="#84522D" points="7.048,32.788 10.663,32.845 93.236,34.445 100.665,35.522 
		105.824,26.35 89.764,7.803 23.361,0 0,17.271 1.056,32.867 	"/>
</g>
<path fill="#D8AA79" d="M12.599,33.142c0,0,0.025,28.685,1.964,30.346c1.938,1.66,73.348,4.704,76.186,2.081
	s4.313-30.991,4.313-30.991c6.872-5.531-3.281-19.044-38.396-21.917C21.371,9.774,4.384,25.608,12.599,33.142z"/>
</svg>
