<?xml version="1.0" encoding="utf-8"?>
<!-- Generator: Adobe Illustrator 15.0.2, SVG Export Plug-In  -->
<!DOCTYPE svg PUBLIC "-//W3C//DTD SVG 1.1//EN" "http://www.w3.org/Graphics/SVG/1.1/DTD/svg11.dtd" [
	<!ENTITY ns_flows "http://ns.adobe.com/Flows/1.0/">
]>
<svg version="1.1"
	 xmlns="http://www.w3.org/2000/svg" xmlns:xlink="http://www.w3.org/1999/xlink" xmlns:a="http://ns.adobe.com/AdobeSVGViewerExtensions/3.0/"
	 x="0px" y="0px" width="56px" height="55px" viewBox="-2 0 56 55" overflow="visible" enable-background="new -2 0 56 55"
	 xml:space="preserve">
<defs>
</defs>
<path fill="#A681CF" d="M12.22,9.509c0,0-1.006-0.374-0.163-1.639c0.844-1.264,5.987-4.682,10.682-4.321
	c0.456,0.035,1.534-0.259,2.483-0.329C26.17,3.151,31.207,3.373,31.418,0l0.596,2.74l-5.763,2.67L12.22,9.509z"/>
<path fill="#A681CF" d="M18.979,10.715c0,0-6.816-0.246-7.238-1.756c0,0-3.162,1.371-4.145,2.846
	C7.596,11.805,18.627,12.157,18.979,10.715z"/>
<path fill="#9779BF" d="M31.418,0c0,0-0.279,1.581-1.232,2.096c-0.818,0.444-1.346,0.702-2.996,0.773
	c-0.742,0.031-2.534,0.079-3.701,0.35c-3.021,0.703-11.876,4.553-11.572,6.688c0.035,0.245,3.76,0.877,6.605,0.737
	c2.846-0.141,12.226-3.969,12.226-3.969l2.986-1.757C33.734,4.918,32.68,1.581,31.418,0z"/>
<path fill="#A681CF" d="M17.714,10.961c0,0,3.443-2.635,6.395-3.514c2.952-0.877,7.132-1.616,7.765-2.6
	c0.818-1.272,0.877-2.846-0.314-4.708c0,0,2.283,3.338,1.58,6.043l-8.538,5.235L17.714,10.961z"/>
<path fill="#A681CF" d="M36.299,8.186c0,0,1.75-1.129,0.281-2.108c-0.633-0.422-1.266-0.105-1.721-0.352s-0.736-0.703-0.736-0.703
	s0.736,1.371-1.266,2.564C30.855,8.783,36.299,8.186,36.299,8.186z"/>
<path fill="#9779BF" d="M32.365,1.651c0,0,3.338,3.443,1.195,5.763l-9.101,3.512l-3.021-0.738c0,0,2.002-2.529,4.215-2.951
	c2.216-0.42,6.321-1.426,6.956-2.635C32.961,3.934,32.998,3.408,32.365,1.651z"/>
<path fill="#2D1515" d="M49.814,27.697c0,0-0.844,2.717-1.219,3.561c0,0-15.271,7.73-24.312,6.65
	c-9.042-1.076-20.659-5.01-22.252-8.244C0.439,26.431,49.814,27.697,49.814,27.697z"/>
<path fill="#DAD5E2" d="M49.023,30.15c0,0-6.113,15.602-6.535,16.76c-0.418,1.158-3.686,6.006-15.492,6.535
	c-11.803,0.525-16.284-5.654-17.075-6.854c-0.628-0.953-5.5-13.18-7.936-17.068c0,0,1.124,1.08,1.405,1.266
	c0.281,0.188,1.078,0.518,1.078,0.518s0.515,0.654,0.842,0.654c0.329,0,1.171,0.094,1.312,0.141
	c0.141,0.045,0.797,0.656,1.312,0.656c0.516,0,1.358-0.094,1.593,0.092c0.233,0.188,0.609,0.375,1.125,0.562
	c0.515,0.188,2.576,0.281,2.576,0.281s3.793,0.092,3.936,0.092c0.141,0-0.094,0.471,0.28,0.471c0.375,0,1.781-0.422,2.342-0.422
	c0.562,0,1.547,0.469,2.296,0.469c0.75,0,3.186-1.453,3.747-0.609c0.562,0.844-1.404,1.875-0.514,2.25
	c0.89,0.373,2.529-0.611,2.857-0.611c0.326,0,1.5-0.281,1.828-0.281c0.326,0,2.107,0,2.621,0c0.518,0,1.875-0.654,2.531-0.654
	c0.654,0,3.42-0.094,4.123-0.281c0.701-0.189,1.264-0.938,1.826-1.172s2.248,0.094,2.529,0s1.453-1.219,1.688-1.219
	c0.232,0,1.404-0.092,1.73-0.092c0.33,0,0.096-0.516,0.377-0.516S48.562,30.355,49.023,30.15z"/>
<path fill="#351818" d="M25.08,34.162c13.311-0.219,26.422-4.498,26.609-9.792c0.186-5.292-6.184-9.275-27.218-8.338
	C3.438,16.969-0.591,20.764,0.065,26.292C0.721,31.82,10.886,34.396,25.08,34.162z"/>
<path fill="#9779BF" d="M4.398,16.864c0,0,0.281-0.352,0.176-0.807C4.469,15.6,2.096,14.72,1.973,13.385
	c-0.035-0.387,2.039-2.072,7.941-1.932s13.877-2.459,15.634-1.721c1.758,0.737-6.604,6.815-6.604,6.815L4.398,16.864z"/>
<g>
	<defs>
		<path id="SVGID_1_" d="M49.023,30.15c0,0-6.113,15.602-6.535,16.76c-0.418,1.158-3.686,6.006-15.492,6.535
			c-11.803,0.525-16.284-5.654-17.075-6.854c-0.628-0.953-5.5-13.18-7.936-17.068c0,0,1.124,1.08,1.405,1.266
			c0.281,0.188,1.078,0.518,1.078,0.518s0.515,0.654,0.842,0.654c0.329,0,1.171,0.094,1.312,0.141
			c0.141,0.045,0.797,0.656,1.312,0.656c0.516,0,1.358-0.094,1.593,0.092c0.233,0.188,0.609,0.375,1.125,0.562
			c0.515,0.188,2.576,0.281,2.576,0.281s3.793,0.092,3.936,0.092c0.141,0-0.094,0.471,0.28,0.471c0.375,0,1.781-0.422,2.342-0.422
			c0.562,0,1.547,0.469,2.296,0.469c0.75,0,3.186-1.453,3.747-0.609c0.562,0.844-1.404,1.875-0.514,2.25
			c0.89,0.373,2.529-0.611,2.857-0.611c0.326,0,1.5-0.281,1.828-0.281c0.326,0,2.107,0,2.621,0c0.518,0,1.875-0.654,2.531-0.654
			c0.654,0,3.42-0.094,4.123-0.281c0.701-0.189,1.264-0.938,1.826-1.172s2.248,0.094,2.529,0s1.453-1.219,1.688-1.219
			c0.232,0,1.404-0.092,1.73-0.092c0.33,0,0.096-0.516,0.377-0.516S48.562,30.355,49.023,30.15z"/>
	</defs>
	<clipPath id="SVGID_2_">
		<use xlink:href="#SVGID_1_"  overflow="visible"/>
	</clipPath>
	<g clip-path="url(#SVGID_2_)">
		<g>
			<path fill="#D1CED8" d="M4.469,31.307c0,0,2.881,4.074,5.551,11.871c0,0-3.41-6.857-4.287-8.43
				C4.047,31.725,3.344,30.533,4.469,31.307z"/>
			<g>
				<path fill="#D1CED8" d="M6.717,31.514c0,0,4.848,9.699,6.534,14.898c0,0-5.971-12.859-8.081-15.18
					C3.063,28.914,6.717,31.514,6.717,31.514z"/>
			</g>
			<path fill="#D1CED8" d="M8.754,31.025c0,0,5.27,10.539,6.465,15.387c0,0-5.973-13.07-8.361-16.02L8.754,31.025z"/>
			<path fill="#D1CED8" d="M13.229,33.693c0,0,4.099,10.328,4.731,13.07c0,0-3.009-6.381-4.215-8.363
				c-1.758-2.879-4.217-6.605-2.742-7.094C12.479,30.814,13.229,33.693,13.229,33.693z"/>
			<path fill="#D1CED8" d="M17.118,34.115c0,0,3.372,11.523,4.145,14.336c0,0-2.881-7.59-4.709-10.684
				c-1.826-3.09-3.231-6.883-3.231-6.883S17.468,32.639,17.118,34.115z"/>
			<path fill="#D1CED8" d="M22.082,34.303l2.202,12.742c0,0-3.653-10.398-4.848-13.352C18.241,30.744,22.13,32.805,22.082,34.303z"
				/>
			<path fill="#D1CED8" d="M25.69,34.467c0,0-0.961,0.984-0.375,1.477c0,0,0.936,6.465,2.273,12.156c0,0-3.585-12.93-4.427-14.125
				c-0.844-1.195,0.702-2.25,0.702-2.25l2.951,0.141l0.142,1.969L25.69,34.467z"/>
			<path fill="#D1CED8" d="M32.295,34.396c0,0,0,11.031-0.633,13.422c0,0,1.547-7.168,0.984-13.703l-0.07,0.352"/>
			<path fill="#D1CED8" d="M41.428,32.428c0,0-3.09,2.18-3.23,7.238C38.197,39.666,38.76,35.311,41.428,32.428z"/>
			<path fill="#D1CED8" d="M44.311,31.443c0,0-3.305,5.973-3.793,9.277c0,0,3.863-7.379,5.27-9.695
				C47.189,28.703,44.311,31.443,44.311,31.443z"/>
			<path fill="#D1CED8" d="M47.119,30.951c0,0-2.105,5.695-2.387,6.609l3.301-7.449L47.119,30.951z"/>
		</g>
	</g>
</g>
<path fill="#A681CF" d="M5.698,19.463c0,0-2.071,0.457-3.338,1.09c-0.281,0.141-1.071-1.482-0.492-2.178
	c0.879-1.055,2.417-2.424,8.188-2.424c1.65,0,11.418-4.533,14.721-5.938c3.3-1.406-13.422,9.275-13.422,9.275L5.698,19.463z"/>
<path fill="#A681CF" d="M27.658,24.804c0,0,1.051,1.23,1.51,1.406c0.455,0.175,1.195,0.737,1.266,1.194s-0.178,1.123,0.596,1.193
	s10.75,0.844,13.736-0.035c2.986-0.877,7.906-7.412,7.838-9.239c-0.07-1.827-5.621-3.723-8.223-3.548
	c-2.602,0.176-7.449,0.35-7.449,0.35l-5.551,4.709L27.658,24.804z"/>
<path fill="#9779BF" d="M5.698,19.463c0,0,6.254-1.826,9.943-3.969c3.689-2.143,18.833-13.773,24.455-6.184l-2.213,2.002l-6.994,3.9
	l-10.048,5.762L9.774,20.764L5.698,19.463z"/>
<path fill="#9779BF" d="M26.743,24.84c0,0,1.407,1.124,2.04,1.019s-0.496-2.003,0.736-2.671c1.229-0.667,2.072-1.195,2.775-1.896
	c0.703-0.703,2.424-3.232,4.145-3.197s2.213,1.615,4.848,0.914c2.639-0.703,3.689-2.531,4.43-2.811c0,0-0.07-0.597,0.281-0.773
	s1.121-2.635,0.033-3.198l-3.441,0.352l-5.658,0.07l-8.711,3.232l-1.653,4.25L26.743,24.84z"/>
<path fill="#9779BF" d="M24.073,21.993c0,0,0.211,2.214,2.67,2.847c0,0,0.667-5.096,6.78-8.467c6.113-3.375,4.604-0.914,6.887-1.582
	s3.01-3.205,5.832-1.512c0.703,0.422,2.354-3.442-6.076-2.6C31.732,11.524,24.073,21.993,24.073,21.993z"/>
<path fill="#A681CF" d="M5.698,19.463c0,0,0.527,0.738,0.562,1.406s-0.352,1.475-0.035,1.756c0.316,0.281,0.422,0,0.809,0.141
	c0.387,0.14,6.777,2.731,10.75,2.354c3.689-0.351,6.995-3.618,11.839-6.886c6.293-4.245,13.178-8.542,15.916-7.133
	c0,0,1.074-1.947-0.984-4.004c-0.104-0.105-3.441,2.213-4.248,2.213c-0.811,0-5.344,0.842-15.882,6.254
	C13.884,20.975,6.084,19.534,5.698,19.463z"/>
<path fill="#9779BF" d="M30.434,27.404c0,0,6.873-5.375,9.592-6.734c2.717-1.358,7.354-4.31,6.791-8.572
	c-0.248-1.875-3.029-1.566-6.184-0.281c-4.021,1.641-8.664,4.741-9.555,5.528c-0.727,0.64-2.395,1.589-3.75,2.529
	c-1.763,1.223-3.185,2.389-3.185,2.389s-0.312,1.667,3.747,3.514C29.438,26.48,30.434,27.404,30.434,27.404z"/>
</svg>
