<?xml version="1.0" encoding="utf-8"?>
<!-- Generator: Adobe Illustrator 15.0.2, SVG Export Plug-In  -->
<!DOCTYPE svg PUBLIC "-//W3C//DTD SVG 1.1//EN" "http://www.w3.org/Graphics/SVG/1.1/DTD/svg11.dtd" [
	<!ENTITY ns_flows "http://ns.adobe.com/Flows/1.0/">
]>
<svg version="1.1"
	 xmlns="http://www.w3.org/2000/svg" xmlns:xlink="http://www.w3.org/1999/xlink" xmlns:a="http://ns.adobe.com/AdobeSVGViewerExtensions/3.0/"
	 x="0px" y="0px" width="40px" height="36px" viewBox="0 0 40 36" overflow="visible" enable-background="new 0 0 40 36"
	 xml:space="preserve">
<defs>
</defs>
<circle fill="#4B003B" cx="20" cy="20" r="6.4"/>
<path fill="#4B003B" d="M14,0l-3.66,4H4C1.79,4,0,5.79,0,8v24c0,2.21,1.79,4,4,4h32c2.21,0,4-1.79,4-4V8c0-2.21-1.79-4-4-4h-6.34
	L26,0H14z M20,30c-5.52,0-10-4.48-10-10c0-5.52,4.48-10,10-10c5.52,0,10,4.48,10,10C30,25.52,25.52,30,20,30z"/>
</svg>
