<?xml version="1.0" encoding="utf-8"?>
<!-- Generator: Adobe Illustrator 15.0.2, SVG Export Plug-In  -->
<!DOCTYPE svg PUBLIC "-//W3C//DTD SVG 1.1//EN" "http://www.w3.org/Graphics/SVG/1.1/DTD/svg11.dtd" [
	<!ENTITY ns_flows "http://ns.adobe.com/Flows/1.0/">
]>
<svg version="1.1"
	 xmlns="http://www.w3.org/2000/svg" xmlns:xlink="http://www.w3.org/1999/xlink" xmlns:a="http://ns.adobe.com/AdobeSVGViewerExtensions/3.0/"
	 x="0px" y="0px" width="100px" height="100px" viewBox="-4.808 -6.5 100 100"
	 overflow="visible" enable-background="new -4.808 -6.5 100 100" xml:space="preserve">
<defs>
</defs>
<path fill="#63342E" d="M30.377,82.479c1.782,0.373-10.943,2.821,20.378,2.266c29.527-0.524,16.771-2.221,16.771-2.221
	S91.13,65.784,90.605,49.977C89.963,30.543,78.826,7.211,40.427,3.443C1.317-0.394-3.111,42.316,1.455,51.172
	c0,0,1.79,11.628,5.367,15.204C10.4,69.954,23.817,81.101,30.377,82.479z"/>
<path fill="#512B25" d="M1.553,51.424c0,0,2.717,8.453,9.552,13.995c11.583,9.394,35.004,14.382,56.7-5.832
	c0,0,0.694-0.564,0.055-1.221c-3.887-3.999-24.434,5.22-22.324-10.053"/>
<path fill="#63342E" d="M1.108,50.313c0,0,2.718,8.452,9.552,13.993c11.583,9.394,32.764,15.574,56.392-4.488
	c0,0,1.142-0.731,0.587-1.286c-3.944-3.943-25.65,5.636-21.757-11.238"/>
<path fill="#512B25" d="M53.531,11.995c0,0,5,18.993,11.998,17.993c6.995-1,4.997-3.035,8.218-2.924
	c3.221,0.111,13.327,6.738,12.438,3.258c0,0-2.055-5.387-4.165-6.109"/>
<path fill="#63342E" d="M52.644,10.885c0,0,5.775,19.437,12.773,18.437c6.997-0.999,5.331-2.777,8.551-2.665
	c3.221,0.111,10.737,5.146,12.218,3.666c0,0,1.481-1.037-4.22-6.387"/>
<circle fill="#FFFFFF" cx="19.435" cy="21.769" r="2.332"/>
<circle fill="#EF7878" cx="21.212" cy="33.764" r="2.333"/>
<circle fill="#EF7878" cx="16.214" cy="15.883" r="2.332"/>
<circle fill="#EF7878" cx="44.424" cy="22.102" r="2.333"/>
<circle fill="#EF7878" cx="68.86" cy="14.771" r="2.333"/>
<circle fill="#EF7878" cx="55.753" cy="12.995" r="2.333"/>
<circle fill="#EF7878" cx="39.76" cy="6.553" r="2.332"/>
<circle fill="#EF7878" cx="43.981" cy="6.553" r="2.333"/>
<circle fill="#EF7878" cx="16.658" cy="9.44" r="2.333"/>
<circle fill="#F7941E" cx="3.627" cy="24.768" r="2.333"/>
<circle fill="#F7941E" cx="57.753" cy="9.663" r="2.332"/>
<circle fill="#F7941E" cx="57.531" cy="17.437" r="2.333"/>
<circle fill="#F7941E" cx="50.423" cy="12.328" r="2.332"/>
<circle fill="#F7941E" cx="48.867" cy="39.207" r="2.332"/>
<circle fill="#F7941E" cx="61.307" cy="42.539" r="2.333"/>
<circle fill="#F7941E" cx="75.967" cy="16.104" r="2.333"/>
<circle fill="#F7941E" cx="41.093" cy="9.885" r="2.333"/>
<circle fill="#009444" cx="22.767" cy="21.547" r="2.333"/>
<circle fill="#009444" cx="49.867" cy="30.655" r="2.333"/>
<circle fill="#009444" cx="49.867" cy="23.99" r="2.333"/>
<circle fill="#009444" cx="65.416" cy="14.216" r="2.332"/>
<circle fill="#4E3A66" cx="63.75" cy="15.883" r="2.333"/>
<circle fill="#4E3A66" cx="52.2" cy="10.996" r="2.332"/>
<circle fill="#4E3A66" cx="48.497" cy="5.369" r="2.332"/>
<circle fill="#4E3A66" cx="37.39" cy="9.515" r="2.332"/>
<circle fill="#4E3A66" cx="29.69" cy="19.881" r="2.332"/>
<circle fill="#4E3A66" cx="28.209" cy="13.958" r="2.333"/>
<circle fill="#009444" cx="60.863" cy="23.213" r="2.332"/>
<circle fill="#1BA0F8" cx="63.307" cy="20.325" r="2.332"/>
<circle fill="#1BA0F8" cx="55.976" cy="23.435" r="2.333"/>
<circle fill="#1BA0F8" cx="72.636" cy="14.327" r="2.333"/>
<circle fill="#1BA0F8" cx="35.762" cy="15.216" r="2.332"/>
<circle fill="#1BA0F8" cx="28.875" cy="5.442" r="2.333"/>
<circle fill="#1BA0F8" cx="23.989" cy="8.553" r="2.332"/>
<circle fill="#1BA0F8" cx="45.535" cy="10.107" r="2.332"/>
<circle fill="#1BA0F8" cx="36.502" cy="23.139" r="2.333"/>
<circle fill="#1BA0F8" cx="41.981" cy="15.143" r="2.333"/>
<circle fill="#009444" cx="35.762" cy="11.439" r="2.332"/>
<circle fill="#009444" cx="33.096" cy="2.333" r="2.333"/>
<circle fill="#009444" cx="44.647" cy="3.888" r="2.332"/>
<circle fill="#F9ED32" cx="10.217" cy="18.548" r="2.333"/>
<circle fill="#F9ED32" cx="38.76" cy="38.873" r="2.332"/>
<circle fill="#FFFFFF" cx="53.089" cy="36.097" r="2.333"/>
<circle fill="#FFFFFF" cx="26.21" cy="18.548" r="2.332"/>
<circle fill="#FFFFFF" cx="56.199" cy="30.988" r="2.333"/>
<circle fill="#FFFFFF" cx="48.423" cy="15.883" r="2.333"/>
<circle fill="#FFFFFF" cx="38.871" cy="16.993" r="2.333"/>
<circle fill="#FFFFFF" cx="29.098" cy="32.024" r="2.332"/>
<circle fill="#FFFFFF" cx="23.323" cy="14.401" r="2.333"/>
<circle fill="#FFFFFF" cx="60.345" cy="13.661" r="2.333"/>
<circle fill="#FFFFFF" cx="62.863" cy="10.551" r="2.333"/>
<circle fill="#FFFFFF" cx="34.651" cy="4.553" r="2.333"/>
<circle fill="#FFFFFF" cx="66.86" cy="23.657" r="2.332"/>
<circle fill="#E82A41" cx="71.081" cy="18.771" r="2.332"/>
<circle fill="#E82A41" cx="54.421" cy="7.219" r="2.332"/>
<circle fill="#E82A41" cx="43.093" cy="25.212" r="2.332"/>
<circle fill="#E82A41" cx="23.989" cy="27.137" r="2.332"/>
<circle fill="#E82A41" cx="30.875" cy="6.997" r="2.333"/>
<circle fill="#E82A41" cx="55.976" cy="26.767" r="2.333"/>
<circle fill="#F9ED32" cx="38.094" cy="29.321" r="2.332"/>
<circle fill="#F9ED32" cx="79.188" cy="20.658" r="2.333"/>
<circle fill="#F9ED32" cx="30.468" cy="10.885" r="2.333"/>
<circle fill="#F9ED32" cx="19.657" cy="8.367" r="2.333"/>
<circle fill="#F9ED32" cx="53.125" cy="19.178" r="2.332"/>
<circle fill="#F9ED32" cx="32.097" cy="24.213" r="2.333"/>
<circle fill="#F9ED32" cx="53.199" cy="4.22" r="2.332"/>
<circle fill="#F9ED32" cx="32.097" cy="14.216" r="2.333"/>
</svg>
