<?xml version="1.0" encoding="utf-8"?>
<!-- Generator: Adobe Illustrator 15.0.2, SVG Export Plug-In  -->
<!DOCTYPE svg PUBLIC "-//W3C//DTD SVG 1.1//EN" "http://www.w3.org/Graphics/SVG/1.1/DTD/svg11.dtd" [
	<!ENTITY ns_flows "http://ns.adobe.com/Flows/1.0/">
]>
<svg version="1.1"
	 xmlns="http://www.w3.org/2000/svg" xmlns:xlink="http://www.w3.org/1999/xlink" xmlns:a="http://ns.adobe.com/AdobeSVGViewerExtensions/3.0/"
	 x="0px" y="0px" width="428px" height="426px" viewBox="0 0 428 426" overflow="visible" enable-background="new 0 0 428 426"
	 xml:space="preserve">
<defs>
</defs>
<path fill="#D8AA59" d="M213.749,7.033c2.732,3.783,22-1.333,28,0s26.666-4,36-1.333s10.667,4.667,12.667,4.667
	s14.001,4.667,18.667,10.667c0,0,11.334,5.333,14,5.333s21.333,6.667,25.333,8.667s48.667,50,58,80c0,0,12.666,19.333,15.333,31.333
	s2,40,2.667,43.333s2.667,14,2.667,18s-2,9.999-2,13.333s8,51.333-4,74c0,0-7.334,24-16.667,34.667c0,0-16.667,31.333-48,50
	c-8.14,4.85-28.666,46.667-99.333,40.667c0,0-63.334,26.666-138-35.334c0,0-21.333-7.334-36.667-26s-23.333-30-25.333-36
	c0,0-28-20.666-39.333-42.666s-37.332-111.334,8-154c0,0,6.666-30,23.333-36.667c0,0-4.666-21.333,16.667-44s43.333-35.333,62-40
	S205.082-4.967,213.749,7.033z"/>
<g>
	<defs>
		<path id="SVGID_1_" d="M213.749,7.033c2.732,3.783,22-1.333,28,0s26.666-4,36-1.333s10.667,4.667,12.667,4.667
			s14.001,4.667,18.667,10.667c0,0,11.334,5.333,14,5.333s21.333,6.667,25.333,8.667s48.667,50,58,80
			c0,0,12.666,19.333,15.333,31.333s2,40,2.667,43.333s2.667,14,2.667,18s-2,9.999-2,13.333s8,51.333-4,74
			c0,0-7.334,24-16.667,34.667c0,0-16.667,31.333-48,50c-8.14,4.85-28.666,46.667-99.333,40.667c0,0-63.334,26.666-138-35.334
			c0,0-21.333-7.334-36.667-26s-23.333-30-25.333-36c0,0-28-20.666-39.333-42.666s-37.332-111.334,8-154c0,0,6.666-30,23.333-36.667
			c0,0-4.666-21.333,16.667-44s43.333-35.333,62-40S205.082-4.967,213.749,7.033z"/>
	</defs>
	<clipPath id="SVGID_2_">
		<use xlink:href="#SVGID_1_"  overflow="visible"/>
	</clipPath>
	<g clip-path="url(#SVGID_2_)">
		<path fill="#CC9D58" d="M328.416,10.367l122,80c0,0,47,152,46,157s-66,174-66,174l-248,37c0,0-147-103-60-72s154-30,176-40.667
			s14-42.333,8-63.333s-56,1-81-27s25-72,30-88s59-23,74-36s-34-69-33-86s12.667-24.334,12.667-24.334L328.416,10.367z"/>
		<path fill="#D3A559" d="M296.416,45.367c0,0-96-26-134,24s37,23,59,22s-56,60-86,93s-26,105,9,121s56,79,95,76s119-92,119-92
			l6-159L296.416,45.367z"/>
	</g>
</g>
<path fill="#4F3209" d="M253.749,29.033c0,0,11.334,16.667,18.667,17.333s11.332,0,20.666,2.667s0.668-29.333-12.666-34
	S261.082,21.7,261.082,21.7s7.333-1.333,8,2S253.749,29.033,253.749,29.033z"/>
<path fill="#4F3209" d="M131.082,85.033c0,0-25.333,0.667-36.667,29.333c0,0,11.329,27.67,36.667,8.667
	C155.082,105.033,131.082,85.033,131.082,85.033z"/>
<path fill="#4F3209" d="M49.082,89.7c0,0-14.667,15.333-4,28C45.082,117.7,52.415,117.7,49.082,89.7z"/>
<path fill="#4F3209" d="M214.416,27.7c0,0-12.001,5.333-19.334,4s-16.666,3.333-19.333,10s18.667,3.333,21.333-4.667
	c2-6,14.668-8.667,25.334-2L214.416,27.7z"/>
<path fill="#4F3209" d="M196.415,139.033c0,0,23.334,10,26,5.333s-15.334-52.667-42-20.667c0,0,12.667-8.667,13.333-4
	s-14.667,3.333-17.333,7.333S191.082,137.033,196.415,139.033z"/>
<path fill="#4F3209" d="M281.082,95.033c0,0-5.332,10-12.666,8s4.666,30.667,16.666,37.333S328.415,95.033,281.082,95.033z"/>
<path fill="#4F3209" d="M353.082,77.033c0,0-12,22.667-23.333,28.667s17.333,4.667,22,6.667s2,10,6,10s9.333-23.333,5.333-33.333
	s7.334,4,7.334,4S371.082,77.033,353.082,77.033z"/>
<path fill="#4F3209" d="M352.416,165.7c-1.011,6.062,5.334,9.333,4,13.333s-5.334,7.333-4.667,9.333s10.667,6,16,1.333
	s3.334,4,2.667,7.333s8.667-12,0-25.333S353.083,161.7,352.416,165.7z"/>
<path fill="#4F3209" d="M181.082,151.7c0.573,4.773,11.333,1.333,13.333,6.667s-3.333,34-23.333,6S179.082,135.034,181.082,151.7z"
	/>
<path fill="#4F3209" d="M150.415,173.7c0,0-4.667,7.333-8.667,8s16.666,3.333,19.333,8c0,0-6-11.334-1.333-12.667
	C159.749,177.033,151.082,177.7,150.415,173.7z"/>
<path fill="#4F3209" d="M60.415,223.033c0,0,19.333-5.333,27.333-3.333c0,0,2-21.333-16-21.333S65.082,214.366,60.415,223.033z"/>
<path fill="#4F3209" d="M258.416,221.7c-4.584,1.447,4,11.333,1.333,15.333s-6.667,1.334-10,5.334s24.001,44.666,40.667,17.333
	S283.75,213.7,258.416,221.7z"/>
<path fill="#4F3209" d="M189.749,255.033c4.3,3.225,22.666,5.333,29.333-4s-2.667-24.667-10-24s-9.333-9.334-16.667-6
	S173.749,243.033,189.749,255.033z"/>
<path fill="#4F3209" d="M336.416,255.033c2-2.666,7.334-1.333,14-3.333s17.333-10,23.333-8s-2.667,17.333-2.667,24
	s-2-3.333-5.333-3.333s-6.001,10-14.667,10S336.416,255.033,336.416,255.033z"/>
<path fill="#4F3209" d="M82.415,359.033c0,0,29.333-5.333,30.667-13.333c0,0,1.333,10.667,7.333,10.667s-4.667,23.333-14,23.333
	C106.415,379.7,83.082,363.699,82.415,359.033z"/>
<path fill="#4F3209" d="M178.415,303.7l-20.667,2.667l0.667,4c0,0,16.667-2.666,20.667,0L178.415,303.7z"/>
<path fill="#4F3209" d="M145.082,331.033c0,0,11.333,2.667,14-5.333c0,0,6-2.001,10-0.667s16-0.666,11.333,8.667
	s-7.333,14-13.333,14s-28.667-4.001-22-8.667C145.082,339.033,147.082,336.366,145.082,331.033z"/>
<path fill="#4F3209" d="M274.416,321.033c0,0,7.999,5.333,14.666,0s14.668,18,9.334,24.667s8.666,13.334-5.334,18.667
	s-14.666-4.667-14.666-4.667s-23.334-5.333-14.667-20S275.083,328.366,274.416,321.033z"/>
</svg>
