<?xml version="1.0" encoding="utf-8"?>
<!-- Generator: Adobe Illustrator 15.0.2, SVG Export Plug-In  -->
<!DOCTYPE svg PUBLIC "-//W3C//DTD SVG 1.1//EN" "http://www.w3.org/Graphics/SVG/1.1/DTD/svg11.dtd" [
	<!ENTITY ns_flows "http://ns.adobe.com/Flows/1.0/">
]>
<svg version="1.1"
	 xmlns="http://www.w3.org/2000/svg" xmlns:xlink="http://www.w3.org/1999/xlink" xmlns:a="http://ns.adobe.com/AdobeSVGViewerExtensions/3.0/"
	 x="0px" y="0px" width="348px" height="77px" viewBox="0 0 348 77" overflow="visible" enable-background="new 0 0 348 77"
	 xml:space="preserve">
<defs>
</defs>
<path fill="#FFFFFF" stroke="#FFFFFF" stroke-miterlimit="10" d="M5.67,22.645l0.146,8.39c1.561-2.861,3.552-5.138,5.975-6.829
	c2.422-1.69,5.178-2.536,8.268-2.536c9.202,0,13.917,6.13,14.146,18.389v35.363h-5.366V40.644
	c-0.033-4.715-0.862-8.195-2.487-10.438c-1.626-2.244-4.179-3.365-7.658-3.365c-2.829,0-5.374,1.065-7.633,3.195
	c-2.261,2.13-3.976,5.048-5.146,8.755v36.631H0.5V22.645H5.67z"/>
<path fill="#FFFFFF" stroke="#FFFFFF" stroke-miterlimit="10" d="M40.052,46.351c0-7.609,1.723-13.625,5.17-18.048
	c3.446-4.422,8.146-6.633,14.096-6.633c5.983,0,10.69,2.179,14.121,6.536c3.43,4.358,5.162,10.357,5.195,17.999v5.609
	c0,7.739-1.731,13.772-5.195,18.096c-3.463,4.325-8.138,6.487-14.023,6.487c-5.886,0-10.552-2.113-13.999-6.341
	c-3.447-4.227-5.236-10.048-5.365-17.462V46.351z M45.515,51.786c0,6.074,1.227,10.85,3.683,14.325
	c2.455,3.475,5.861,5.213,10.219,5.213c4.455,0,7.861-1.673,10.219-5.019c2.357-3.346,3.552-8.137,3.585-14.374v-5.603
	c0-6.074-1.236-10.857-3.708-14.349c-2.471-3.492-5.87-5.238-10.194-5.238c-4.195,0-7.528,1.706-9.999,5.116
	c-2.472,3.411-3.74,8.104-3.805,14.081V51.786z"/>
<path fill="#FFFFFF" stroke="#FFFFFF" stroke-miterlimit="10" d="M89.604,22.645l0.146,7.902c3.284-5.918,8-8.877,14.146-8.877
	c6.796,0,11.186,3.236,13.17,9.707c1.658-3.219,3.796-5.642,6.414-7.268c2.617-1.625,5.471-2.438,8.56-2.438
	c9.495,0,14.356,6.114,14.584,18.34v35.412h-5.414V40.351c-0.066-4.552-0.911-7.942-2.537-10.17c-1.626-2.227-4.292-3.341-8-3.341
	c-3.35,0.065-6.178,1.366-8.487,3.902c-2.31,2.537-3.626,5.724-3.951,9.561v35.119h-5.463V40.497c0-4.617-0.854-8.048-2.561-10.292
	c-1.707-2.244-4.365-3.365-7.975-3.365c-2.959,0-5.521,1.024-7.683,3.073c-2.163,2.049-3.731,4.975-4.707,8.78v36.729h-5.414V22.645
	H89.604z"/>
<path fill="#FFFFFF" stroke="#FFFFFF" stroke-miterlimit="10" d="M180.665,62.416c0-2.271-0.944-4.258-2.829-5.962
	c-1.886-1.704-5.081-3.57-9.585-5.598c-4.504-2.028-7.65-3.717-9.438-5.066c-1.789-1.349-3.106-2.821-3.951-4.415
	c-0.846-1.593-1.268-3.479-1.268-5.658c0-4.064,1.463-7.421,4.39-10.072c2.927-2.65,6.715-3.975,11.365-3.975
	c5.007,0,9.007,1.415,11.999,4.244c2.992,2.829,4.488,6.569,4.488,11.218h-5.415c0-2.991-1.024-5.47-3.073-7.438
	c-2.049-1.967-4.715-2.951-8-2.951c-3.187,0-5.715,0.813-7.585,2.438c-1.87,1.626-2.805,3.74-2.805,6.341
	c0,2.114,0.715,3.837,2.146,5.17c1.431,1.333,4.52,3.138,9.268,5.414c4.91,2.146,8.292,3.919,10.146,5.317
	c1.854,1.398,3.251,2.951,4.195,4.658c0.943,1.707,1.415,3.731,1.415,6.073c0,4.358-1.512,7.821-4.536,10.389
	c-3.024,2.569-7.008,3.854-11.951,3.854c-5.236,0-9.471-1.431-12.706-4.292c-3.236-2.861-4.854-6.552-4.854-11.072h5.463
	c0.163,3.27,1.26,5.802,3.292,7.598c2.032,1.796,4.967,2.694,8.804,2.694c3.317,0,5.983-0.811,8-2.434
	C179.656,67.268,180.665,65.11,180.665,62.416z"/>
<path fill="#FFFFFF" stroke="#FFFFFF" stroke-miterlimit="10" d="M228.411,51.521c0,8.13-1.423,14.309-4.268,18.536
	c-2.846,4.228-7.081,6.341-12.707,6.341c-6.211,0-10.812-2.683-13.804-8.048l-0.244,7.073h-5.024V0.5h5.366v29.51
	c2.958-5.561,7.495-8.341,13.609-8.341c5.69,0,9.934,2.008,12.73,6.024c2.796,4.016,4.244,10.007,4.341,17.974V51.521z
	 M222.997,46.594c0-6.698-0.993-11.658-2.976-14.877c-1.984-3.219-5.236-4.829-9.755-4.829c-6.016,0-10.194,3.171-12.536,9.512
	v26.145c1.105,2.764,2.731,4.902,4.877,6.414c2.146,1.512,4.731,2.268,7.756,2.268c4.324,0,7.503-1.568,9.536-4.707
	c2.032-3.138,3.064-8.024,3.098-14.657V46.594z"/>
<path fill="#FFFFFF" stroke="#FFFFFF" stroke-miterlimit="10" d="M262.354,75.421c-0.488-1.69-0.812-4.129-0.977-7.316
	c-1.625,2.634-3.715,4.675-6.268,6.122c-2.553,1.446-5.324,2.17-8.316,2.17c-4.553,0-8.097-1.284-10.633-3.854
	c-2.537-2.568-3.805-6.227-3.805-10.975c0-5.17,1.764-9.268,5.292-12.292c3.528-3.024,8.397-4.552,14.608-4.585h9.072v-7.365
	c0-3.772-0.934-6.479-2.805-8.122c-1.869-1.642-4.609-2.463-8.219-2.463c-3.35,0-6.097,0.976-8.243,2.926
	c-2.146,1.951-3.219,4.472-3.219,7.561l-5.414-0.049c0-4.324,1.625-7.991,4.877-10.999c3.251-3.007,7.333-4.512,12.243-4.512
	c5.301,0,9.316,1.333,12.049,4c2.73,2.667,4.098,6.553,4.098,11.658v25.9c0,5.17,0.471,9.041,1.414,11.609v0.585H262.354z
	 M247.478,71.178c3.186,0,6.008-0.829,8.463-2.488c2.455-1.658,4.25-3.869,5.389-6.633V49.228h-8.584
	c-4.943,0.066-8.666,1.163-11.17,3.292c-2.504,2.13-3.756,5-3.756,8.609C237.819,67.829,241.039,71.178,247.478,71.178z"/>
<path fill="#FFFFFF" stroke="#FFFFFF" stroke-miterlimit="10" d="M301.37,62.416c0-2.271-0.943-4.258-2.829-5.962
	c-1.887-1.704-5.081-3.57-9.585-5.598c-4.504-2.028-7.65-3.717-9.438-5.066c-1.788-1.349-3.105-2.821-3.95-4.415
	c-0.847-1.593-1.269-3.479-1.269-5.658c0-4.064,1.463-7.421,4.39-10.072c2.927-2.65,6.715-3.975,11.365-3.975
	c5.007,0,9.007,1.415,11.999,4.244c2.991,2.829,4.487,6.569,4.487,11.218h-5.414c0-2.991-1.024-5.47-3.073-7.438
	c-2.048-1.967-4.715-2.951-7.999-2.951c-3.188,0-5.715,0.813-7.585,2.438c-1.87,1.626-2.805,3.74-2.805,6.341
	c0,2.114,0.715,3.837,2.146,5.17c1.431,1.333,4.52,3.138,9.268,5.414c4.909,2.146,8.292,3.919,10.146,5.317
	c1.854,1.398,3.251,2.951,4.194,4.658c0.943,1.707,1.415,3.731,1.415,6.073c0,4.358-1.512,7.821-4.536,10.389
	c-3.024,2.569-7.008,3.854-11.95,3.854c-5.236,0-9.472-1.431-12.707-4.292c-3.235-2.861-4.853-6.552-4.853-11.072h5.463
	c0.162,3.27,1.26,5.802,3.292,7.598c2.032,1.796,4.967,2.694,8.805,2.694c3.316,0,5.982-0.811,7.999-2.434
	C300.361,67.268,301.37,65.11,301.37,62.416z"/>
<path fill="#FFFFFF" stroke="#FFFFFF" stroke-miterlimit="10" d="M330.484,76.397c-6.212,0-11.073-2.032-14.585-6.097
	c-3.512-4.064-5.301-9.853-5.365-17.365v-6.438c0-7.739,1.69-13.812,5.073-18.218c3.381-4.406,8.031-6.609,13.949-6.609
	c5.724,0,10.089,1.87,13.097,5.609c3.008,3.74,4.544,9.462,4.609,17.169v5.073h-31.363v2.975c0,6.048,1.293,10.715,3.878,13.999
	c2.585,3.285,6.235,4.927,10.95,4.927c5.202,0,9.414-1.902,12.634-5.707l2.829,3.609C342.743,74.04,337.508,76.397,330.484,76.397z
	 M329.557,26.742c-4.26,0-7.535,1.504-9.828,4.512c-2.292,3.008-3.553,7.406-3.78,13.194h25.9v-1.415
	C341.588,32.173,337.491,26.742,329.557,26.742z"/>
</svg>
