<?xml version="1.0" encoding="utf-8"?>
<!-- Generator: Adobe Illustrator 15.0.2, SVG Export Plug-In  -->
<!DOCTYPE svg PUBLIC "-//W3C//DTD SVG 1.1//EN" "http://www.w3.org/Graphics/SVG/1.1/DTD/svg11.dtd" [
	<!ENTITY ns_flows "http://ns.adobe.com/Flows/1.0/">
]>
<svg version="1.1"
	 xmlns="http://www.w3.org/2000/svg" xmlns:xlink="http://www.w3.org/1999/xlink" xmlns:a="http://ns.adobe.com/AdobeSVGViewerExtensions/3.0/"
	 x="0px" y="0px" width="113px" height="120px" viewBox="21.811 0 113 120"
	 overflow="visible" enable-background="new 21.811 0 113 120" xml:space="preserve">
<defs>
</defs>
<g>
	<defs>
		<path id="SVGID_1_" d="M22,72.141c-3-41.75,30.352-55.692,47.75-57.25c33.5-3,60.75,14.25,64,42.5
			c8.017,69.685-50.25,60.5-50.25,60.5C65,126.391,25,113.891,22,72.141z"/>
	</defs>
	<clipPath id="SVGID_2_">
		<use xlink:href="#SVGID_1_"  overflow="visible"/>
	</clipPath>
	<g clip-path="url(#SVGID_2_)">
		<path fill="#510042" d="M83.5,117.891c0,0,58.267,9.185,50.25-60.5c-3.25-28.25-30.5-45.5-64-42.5
			C52.352,16.449,19,30.391,22,72.141S65,126.391,83.5,117.891z"/>
		<path fill="#965690" d="M99.5,31.141c0,0-2.5,4.25-1.25,9.75s7,13.5,11.25,13.5s9.75-7.75,4.75-13.25S105,35.891,99.5,31.141z"/>
		<path fill="#470035" d="M79.25,36.391c0,0-1.25-7,0.25-10.5c0,0-3.5-2-9.75,2.5C69.75,28.391,76.25,32.891,79.25,36.391z"/>
		<path fill="#4C003C" d="M86.25,94.391c0,0-0.5-43.75-7-58c0,0-10.5-14.25-26.5-13.5c0,0-25,4.75-26.5,31.25
			S62.25,119.641,86.25,94.391z"/>
		<path fill="#56004A" d="M57.75,23.141c0,0-20.5,41.25,26.5,36.5c0,0-1.25-16.5-6-23.5s1,0.25,1,0.25S67.25,23.391,57.75,23.141z"
			/>
		<path fill="#4C003C" d="M84.25,59.641c0,0,46.5,5.5,29.75-34.25l31.75,3l5.25,30.25l-8.25,18.75L136,89.641l-41.5,12.25l-8.25-7.5
			C86.25,94.391,85.5,67.391,84.25,59.641z"/>
		<path fill="#4C003C" d="M82,15.641c0,0,7.5,4.25,4.5,8.5s-7.25,13.75,1.75,15.25s7.25-8.5,10.25-10.5s19,0,19.25,9.25
			s4.25-23.75,4.25-23.75l-26.5-4L82,15.641z"/>
		<path fill="#470035" d="M84.25,15.141c0,0-46.5,3-56,32.75s37.5,62.5,58,46.5c0,0,32,16.5,48.25-29l12.75,33l-35,30.5l-69.75,4.5
			L0,95.891l20.5-52.5L43,12.141l48,0.25L84.25,15.141z"/>
	</g>
</g>
<path fill="#916A3F" d="M76.5,32.641c0,0,1.25-0.5,1.25-2.25c0,0-5.5-12.75-8.5-23.25c0,0,4-5.25,2.25-6.5s-6-1-6,3.75
	s6.25,20,6.75,26.5C72.25,30.891,75.5,33.641,76.5,32.641z"/>
</svg>
