<?xml version="1.0" encoding="utf-8"?>
<!-- Generator: Adobe Illustrator 15.0.2, SVG Export Plug-In  -->
<!DOCTYPE svg PUBLIC "-//W3C//DTD SVG 1.1//EN" "http://www.w3.org/Graphics/SVG/1.1/DTD/svg11.dtd" [
	<!ENTITY ns_flows "http://ns.adobe.com/Flows/1.0/">
]>
<svg version="1.1"
	 xmlns="http://www.w3.org/2000/svg" xmlns:xlink="http://www.w3.org/1999/xlink" xmlns:a="http://ns.adobe.com/AdobeSVGViewerExtensions/3.0/"
	 x="0px" y="0px" width="44px" height="179px" viewBox="0 0 44 179" overflow="visible" enable-background="new 0 0 44 179"
	 xml:space="preserve">
<defs>
</defs>
<path fill="#FFFFFF" d="M22,6V0l-8,8l8,8v-6c6.63,0,12,5.37,12,12c0,2.03-0.51,3.93-1.391,5.609l2.92,2.921
	C37.08,28.05,38,25.141,38,22C38,13.16,30.84,6,22,6z M22,34c-6.63,0-12-5.37-12-12c0-2.03,0.51-3.93,1.39-5.61l-2.92-2.92
	C6.92,15.95,6,18.86,6,22c0,8.84,7.16,16,16,16v6l8-8l-8-8V34z"/>
<path opacity="0.4" fill="#FFFFFF" d="M6,92.5l-6,0.001l8,8l8-8.001h-6c0-6.63,5.37-11.999,12-12c2.03,0,3.93,0.511,5.609,1.391
	l2.921-2.92c-2.48-1.551-5.39-2.47-8.53-2.47C13.16,76.501,6,83.66,6,92.5z M34,92.5c0,6.631-5.369,12.001-12,12.001
	c-2.03,0-3.93-0.511-5.609-1.391l-2.921,2.92c2.48,1.551,5.39,2.47,8.53,2.47c8.84,0,16-7.159,16-16h6l-8-8l-8.001,8H34z"/>
<path fill="#FFFFFF" d="M4,162.666c0,4.42,1.82,8.4,4.71,11.29L4,178.666h12v-12l-4.471,4.47C9.35,168.966,8,165.977,8,162.666
	c0-5.22,3.34-9.65,8-11.3v-4.181C9.1,148.966,4,155.216,4,162.666z M20,172.666h4v-4h-4V172.666z M40,146.666H28v12l4.471-4.47
	c2.18,2.17,3.529,5.159,3.529,8.47c0,5.22-3.34,9.65-8,11.3v4.17c6.9-1.77,12-8.02,12-15.47c0-4.42-1.82-8.4-4.71-11.29L40,146.666z
	 M20,164.666h4v-12h-4V164.666z"/>
</svg>
