<?xml version="1.0" encoding="utf-8"?>
<!-- Generator: Adobe Illustrator 15.0.2, SVG Export Plug-In  -->
<!DOCTYPE svg PUBLIC "-//W3C//DTD SVG 1.1//EN" "http://www.w3.org/Graphics/SVG/1.1/DTD/svg11.dtd" [
	<!ENTITY ns_flows "http://ns.adobe.com/Flows/1.0/">
]>
<svg version="1.1"
	 xmlns="http://www.w3.org/2000/svg" xmlns:xlink="http://www.w3.org/1999/xlink" xmlns:a="http://ns.adobe.com/AdobeSVGViewerExtensions/3.0/"
	 x="0px" y="0px" width="18px" height="18px" viewBox="0 0 18 18" overflow="visible" enable-background="new 0 0 18 18"
	 xml:space="preserve">
<defs>
</defs>
<path fill="none" stroke="#FFFFFF" stroke-width="0.6098" stroke-miterlimit="10" d="M6.657,12.805c0,0,4.187-0.837,6.767-1.613
	c4.096-1.235,6.613-5.584,3.094-9.177c-3.594-3.523-7.896-1.137-9.13,2.957c-0.778,2.58-1.614,6.765-1.614,6.765"/>
<path fill="none" stroke="#FFFFFF" stroke-width="0.6098" stroke-miterlimit="10" d="M16.158,2.144c0,0-3.16-0.747-5.49,1.559
	C8.339,6.007,5.933,12.33,5.933,12.33"/>
<path fill="none" stroke="#FFFFFF" stroke-width="0.6098" stroke-miterlimit="10" d="M16.484,2.273c0,0,0.77,3.217-1.561,5.522
	s-8.885,4.643-8.885,4.643"/>
<line fill="none" stroke="#FFFFFF" stroke-width="0.6098" stroke-miterlimit="10" x1="16.512" y1="2.076" x2="5.064" y2="13.295"/>
<path fill="#FFFFFF" d="M2.509,18.225c-0.355,0.353-0.983,0.293-1.402-0.131L0.35,17.329c-0.417-0.422-0.469-1.053-0.113-1.404
	l4.304-4.258c0.355-0.352,0.982-0.293,1.402,0.13l0.757,0.767c0.418,0.422,0.47,1.051,0.114,1.401L2.509,18.225z"/>
</svg>
