<?xml version="1.0" encoding="utf-8"?>
<!-- Generator: Adobe Illustrator 15.0.2, SVG Export Plug-In  -->
<!DOCTYPE svg PUBLIC "-//W3C//DTD SVG 1.1//EN" "http://www.w3.org/Graphics/SVG/1.1/DTD/svg11.dtd" [
	<!ENTITY ns_flows "http://ns.adobe.com/Flows/1.0/">
]>
<svg version="1.1"
	 xmlns="http://www.w3.org/2000/svg" xmlns:xlink="http://www.w3.org/1999/xlink" xmlns:a="http://ns.adobe.com/AdobeSVGViewerExtensions/3.0/"
	 x="0px" y="0px" width="542px" height="310px" viewBox="-3.602 -2.049 542 310"
	 overflow="visible" enable-background="new -3.602 -2.049 542 310" xml:space="preserve">
<defs>
</defs>
<path fill="#D99A4B" d="M54.591,50.708c0,0-24.262,5.246-33.441,22.294c0,0-12.458,8.524-11.147,19.016
	c1.311,10.491,6.557,17.704,6.557,17.704s-3.935,12.458-3.935,16.393c0,3.934-13.77,18.36-5.246,38.031
	c0,0-30.163,39.343,31.474,97.701c61.636,58.356,125.896,31.474,137.699,33.44s45.244-3.279,59.014-11.146
	c13.77-7.87,70.161-1.312,89.176-26.885c19.017-25.572,43.646-36.75,38.688-93.767c-1.312-15.081-19.671-37.375-24.262-45.244
	c-4.59-7.869-8.523-27.54-25.573-34.752c-17.048-7.213-32.818-86.137-150.157-83.275C82.786,2.186,54.591,50.708,54.591,50.708z"/>
<path fill="#481F14" d="M101.146,30.381c-0.343-7.888,59.669,3.934,59.669,19.671c0,15.737-32.13,10.492-38.031,11.147
	C116.883,61.855,101.801,45.462,101.146,30.381z"/>
<path fill="#481F14" d="M141.144,113c0,0-12.405,24.602-24.917,30.163c-5.901,2.623,25.573,40,52.457,4.59
	C192.007,117.034,147.701,106.443,141.144,113z"/>
<path fill="#481F14" d="M208.026,53.986c1.078-6.467,44.556-21.117,53.768,0.656C269.008,71.691,206.059,65.79,208.026,53.986z"/>
<path fill="#481F14" d="M345.069,192.342c1.71,5.129-55.08-9.18-57.047-32.786c-1.967-23.606,24.917-28.196,29.507-11.803
	c4.59,16.393,7.868,30.163,15.082,36.064C339.824,189.718,344.413,190.374,345.069,192.342z"/>
<path fill="#481F14" d="M61.804,197.586c-0.521,3.9,51.145,19.016,51.145-2.623c0-21.638-17.048,0-28.852,0
	C72.295,194.963,63.115,187.751,61.804,197.586z"/>
<path fill="#481F14" d="M231.885,177.844c-4.823-0.965-14.755,3.935-14.755,9.836c0,5.902,1.967,25.576,10.82,20.657
	C236.803,203.419,266.313,184.73,231.885,177.844z"/>
<path fill="#481F14" d="M13.432,102.052c2.932,4.145,15.71,3.576,21.487-4.228c5.777-7.805,23.453-34.988,11.523-33.752
	S-7.5,72.464,13.432,102.052z"/>
<path fill="#481F14" d="M97.518,301.225c5.218,4.921,29.383,4.802,32.479,0.619c3.097-4.182,5.22-21.935-7.868-26.229
	C109.04,271.322,60.265,266.095,97.518,301.225z"/>
<path opacity="0.25" d="M178.695,104.996c-1.576-3.604-5.852-46.107,23.812-63.374s49.87-33.583,77.725-38.287
	c10.663-1.801,69.986-13.433,157.235,48.604c87.249,62.036,116.455,99.36,67.785,177.9
	c-48.669,78.539-187.961,57.872-198.396,43.828c-10.437-14.043-94.087-31.85-96.263-46.644c0,0-45.501-28.765-38.962-75.996
	C178.169,103.794,178.695,104.996,178.695,104.996z"/>
<path fill="#D99A4B" d="M182.797,103.684c-1.577-3.605-5.852-46.107,23.812-63.374c29.663-17.268,49.87-33.583,77.725-38.288
	c10.663-1.801,69.987-13.433,157.235,48.604c87.249,62.036,116.454,99.36,67.785,177.899
	c-48.669,78.54-187.961,57.873-198.396,43.828c-10.436-14.041-94.086-31.85-96.262-46.643c0,0-45.502-28.766-38.963-75.997
	C182.271,102.482,182.797,103.684,182.797,103.684z"/>
<path fill="#481F14" d="M380.729,183.156c10.895,2.926,38.445,6.087,38.445,6.087s6.02-32.265-49.93-45.437
	c-19.148-4.508-13.146,38.671-5.562,39.648C371.267,184.431,372.618,180.976,380.729,183.156z"/>
<path fill="#481F14" d="M415.416,216.651c12.089-0.212,39.645,28.464,16.364,47.234c-23.281,18.77-47.907-4.812-33.412-24.034
	C412.861,220.629,398.37,216.95,415.416,216.651z"/>
<path fill="#481F14" d="M479.33,127.149c-9.307,6.375,10.806,63.979,33.936,48.138C536.396,159.446,502.46,111.308,479.33,127.149z"
	/>
<path fill="#481F14" d="M395.535,66.464c5.129,1.103-25.973-65.934-43.698-41.006C334.112,50.387,356.038,57.974,395.535,66.464z"/>
<path fill="#481F14" d="M175.064,82.732c7.438,23.009,14.793-2.176,22.752,2.931c7.959,5.107,32.601-50.432,3.31-41.525
	C179.649,50.669,171.011,70.191,175.064,82.732z"/>
<path fill="#481F14" d="M249.472,154.679c-10.367,6.223,10.507,46.933,31.084,35.071c20.576-11.862,18.621,3.306,24.931-5.178
	C311.795,176.088,284.616,133.583,249.472,154.679z"/>
<path fill="#481F14" d="M306.023,94.162c11.361,8.079,49.334,11.345,42.954-13.06s-46.63-18.252-52.788-12.696
	C290.031,73.961,299.791,89.731,306.023,94.162z"/>
<path fill="#481F14" d="M223.301,117.085c-3.516-13.034,8.333-32.498,30.958-25.216C261.794,94.293,229.58,140.36,223.301,117.085z"
	/>
</svg>
